<svg width="864" height="1024" viewBox="0 0 864 1024" fill="none" xmlns="http://www.w3.org/2000/svg">
<g clip-path="url(#clip0_108_11)">
<rect width="864" height="1024" fill="url(#paint0_linear_108_11)"/>
<rect width="864" height="1024" fill="url(#paint1_linear_108_11)"/>
<path d="M82.488 844.48C79.96 844.48 77.624 844.064 75.48 843.232C73.368 842.368 71.528 841.168 69.96 839.632C68.392 838.064 67.176 836.224 66.312 834.112C65.48 831.968 65.064 829.616 65.064 827.056C65.064 824.56 65.512 822.256 66.408 820.144C67.304 818.032 68.536 816.208 70.104 814.672C71.704 813.104 73.576 811.888 75.72 811.024C77.896 810.16 80.264 809.728 82.824 809.728C84.424 809.728 85.992 809.936 87.528 810.352C89.064 810.768 90.488 811.392 91.8 812.224C93.144 813.024 94.296 813.984 95.256 815.104L90.264 820.816C89.592 820.112 88.872 819.504 88.104 818.992C87.368 818.448 86.552 818.032 85.656 817.744C84.76 817.456 83.8 817.312 82.776 817.312C81.496 817.312 80.28 817.552 79.128 818.032C78.008 818.48 77.016 819.136 76.152 820C75.32 820.832 74.664 821.856 74.184 823.072C73.704 824.288 73.464 825.648 73.464 827.152C73.464 828.624 73.704 829.968 74.184 831.184C74.664 832.368 75.336 833.392 76.2 834.256C77.064 835.12 78.104 835.776 79.32 836.224C80.568 836.672 81.944 836.896 83.448 836.896C84.472 836.896 85.448 836.752 86.376 836.464C87.304 836.176 88.152 835.792 88.92 835.312C89.72 834.8 90.424 834.224 91.032 833.584L94.968 839.824C94.168 840.72 93.096 841.52 91.752 842.224C90.44 842.928 88.968 843.488 87.336 843.904C85.736 844.288 84.12 844.48 82.488 844.48ZM99.7361 844V808.48H107.272V823.696L105.736 824.272C106.088 823.12 106.712 822.08 107.608 821.152C108.536 820.192 109.64 819.424 110.92 818.848C112.2 818.272 113.544 817.984 114.952 817.984C116.872 817.984 118.488 818.384 119.8 819.184C121.112 819.952 122.104 821.12 122.776 822.688C123.448 824.224 123.784 826.112 123.784 828.352V844H116.056V828.976C116.056 827.952 115.912 827.104 115.624 826.432C115.336 825.76 114.888 825.264 114.28 824.944C113.704 824.592 112.984 824.432 112.12 824.464C111.448 824.464 110.824 824.576 110.248 824.8C109.672 824.992 109.176 825.296 108.76 825.712C108.344 826.096 108.008 826.544 107.752 827.056C107.528 827.568 107.416 828.128 107.416 828.736V844H103.624C102.728 844 101.96 844 101.32 844C100.68 844 100.152 844 99.7361 844ZM139.613 844.432C137.469 844.432 135.549 843.872 133.853 842.752C132.189 841.6 130.861 840.032 129.869 838.048C128.877 836.032 128.381 833.76 128.381 831.232C128.381 828.64 128.877 826.352 129.869 824.368C130.861 822.384 132.221 820.832 133.949 819.712C135.677 818.56 137.645 817.984 139.853 817.984C141.069 817.984 142.173 818.16 143.165 818.512C144.189 818.864 145.085 819.36 145.853 820C146.621 820.608 147.277 821.328 147.821 822.16C148.365 822.96 148.765 823.824 149.021 824.752L147.437 824.56V818.512H155.069V844H147.293V837.856L149.021 837.808C148.765 838.704 148.349 839.552 147.773 840.352C147.197 841.152 146.493 841.856 145.661 842.464C144.829 843.072 143.901 843.552 142.877 843.904C141.853 844.256 140.765 844.432 139.613 844.432ZM141.725 837.952C142.909 837.952 143.933 837.68 144.797 837.136C145.661 836.592 146.333 835.824 146.813 834.832C147.293 833.808 147.533 832.608 147.533 831.232C147.533 829.856 147.293 828.672 146.813 827.68C146.333 826.656 145.661 825.872 144.797 825.328C143.933 824.752 142.909 824.464 141.725 824.464C140.573 824.464 139.565 824.752 138.701 825.328C137.869 825.872 137.213 826.656 136.733 827.68C136.253 828.672 136.013 829.856 136.013 831.232C136.013 832.608 136.253 833.808 136.733 834.832C137.213 835.824 137.869 836.592 138.701 837.136C139.565 837.68 140.573 837.952 141.725 837.952ZM163.958 844V812.08H171.638V844H163.958ZM159.446 825.232V818.512H176.582V825.232H159.446ZM73.272 904L63.192 870.4H71.496L76.536 888.064C76.76 888.864 76.952 889.68 77.112 890.512C77.304 891.312 77.448 892.08 77.544 892.816C77.672 893.552 77.768 894.24 77.832 894.88C77.896 895.488 77.96 896 78.024 896.416H76.968C77.16 895.232 77.32 894.176 77.448 893.248C77.608 892.32 77.784 891.456 77.976 890.656C78.168 889.824 78.408 888.96 78.696 888.064L83.688 874.768H90.216L95.112 888.064C95.496 889.12 95.816 890.112 96.072 891.04C96.328 891.968 96.52 892.864 96.648 893.728C96.808 894.56 96.936 895.392 97.032 896.224L96.072 896.368C96.136 895.792 96.184 895.264 96.216 894.784C96.248 894.272 96.28 893.792 96.312 893.344C96.376 892.864 96.44 892.368 96.504 891.856C96.568 891.344 96.664 890.784 96.792 890.176C96.92 889.536 97.096 888.816 97.32 888.016L102.312 870.4H110.424L100.344 904H94.104L86.136 884.656L87.048 884.752L79.704 904H73.272ZM114.512 904V878.512H122.192V904H114.512ZM118.352 873.472C116.912 873.472 115.776 873.136 114.944 872.464C114.144 871.76 113.744 870.768 113.744 869.488C113.744 868.336 114.16 867.392 114.992 866.656C115.824 865.92 116.944 865.552 118.352 865.552C119.792 865.552 120.912 865.904 121.712 866.608C122.512 867.28 122.912 868.24 122.912 869.488C122.912 870.672 122.496 871.632 121.664 872.368C120.864 873.104 119.76 873.472 118.352 873.472ZM131.52 904V872.08H139.2V904H131.52ZM127.008 885.232V878.512H144.144V885.232H127.008ZM148.533 904V868.48H156.069V883.696L154.533 884.272C154.885 883.12 155.509 882.08 156.405 881.152C157.333 880.192 158.437 879.424 159.717 878.848C160.997 878.272 162.341 877.984 163.749 877.984C165.669 877.984 167.285 878.384 168.597 879.184C169.909 879.952 170.901 881.12 171.573 882.688C172.245 884.224 172.581 886.112 172.581 888.352V904H164.853V888.976C164.853 887.952 164.709 887.104 164.421 886.432C164.133 885.76 163.685 885.264 163.077 884.944C162.501 884.592 161.781 884.432 160.917 884.464C160.245 884.464 159.621 884.576 159.045 884.8C158.469 884.992 157.973 885.296 157.557 885.712C157.141 886.096 156.805 886.544 156.549 887.056C156.325 887.568 156.213 888.128 156.213 888.736V904H152.421C151.525 904 150.757 904 150.117 904C149.477 904 148.949 904 148.533 904ZM67.224 964V930.4H75.384V964H67.224ZM71.016 951.136V944.32H88.392V951.136H71.016ZM71.016 937.6V930.4H90.36V937.6H71.016ZM95.658 964V938.512H102.954L103.29 946.816L101.85 945.232C102.234 943.856 102.858 942.624 103.722 941.536C104.618 940.448 105.658 939.584 106.842 938.944C108.026 938.304 109.29 937.984 110.634 937.984C111.21 937.984 111.738 938.032 112.218 938.128C112.73 938.224 113.194 938.336 113.61 938.464L111.498 946.96C111.146 946.736 110.666 946.56 110.058 946.432C109.482 946.272 108.874 946.192 108.234 946.192C107.53 946.192 106.874 946.32 106.266 946.576C105.658 946.8 105.146 947.136 104.73 947.584C104.314 948.032 103.978 948.56 103.722 949.168C103.498 949.776 103.386 950.464 103.386 951.232V964H95.658ZM117.934 964V938.512H125.614V964H117.934ZM121.774 933.472C120.334 933.472 119.198 933.136 118.366 932.464C117.566 931.76 117.166 930.768 117.166 929.488C117.166 928.336 117.582 927.392 118.414 926.656C119.246 925.92 120.366 925.552 121.774 925.552C123.214 925.552 124.334 925.904 125.134 926.608C125.934 927.28 126.334 928.24 126.334 929.488C126.334 930.672 125.918 931.632 125.086 932.368C124.286 933.104 123.182 933.472 121.774 933.472ZM144.974 964.48C142.158 964.48 139.71 963.92 137.63 962.8C135.55 961.648 133.934 960.096 132.782 958.144C131.63 956.16 131.054 953.904 131.054 951.376C131.054 949.424 131.374 947.632 132.014 946C132.654 944.368 133.55 942.96 134.702 941.776C135.854 940.56 137.214 939.632 138.782 938.992C140.382 938.32 142.126 937.984 144.014 937.984C145.806 937.984 147.438 938.304 148.91 938.944C150.414 939.584 151.71 940.48 152.798 941.632C153.886 942.784 154.718 944.144 155.294 945.712C155.87 947.28 156.126 948.992 156.062 950.848L156.014 952.912H135.71L134.606 948.592H149.774L148.958 949.504V948.544C148.894 947.744 148.638 947.04 148.19 946.432C147.774 945.792 147.214 945.296 146.51 944.944C145.806 944.592 145.006 944.416 144.11 944.416C142.862 944.416 141.79 944.672 140.894 945.184C140.03 945.664 139.374 946.384 138.926 947.344C138.478 948.272 138.254 949.424 138.254 950.8C138.254 952.208 138.542 953.44 139.118 954.496C139.726 955.52 140.59 956.32 141.71 956.896C142.862 957.472 144.222 957.76 145.79 957.76C146.878 957.76 147.838 957.6 148.67 957.28C149.534 956.96 150.462 956.416 151.454 955.648L155.054 960.736C154.062 961.6 153.006 962.304 151.886 962.848C150.766 963.392 149.614 963.792 148.43 964.048C147.278 964.336 146.126 964.48 144.974 964.48ZM160.955 964V938.512H168.251L168.491 943.696L166.955 944.272C167.307 943.12 167.931 942.08 168.827 941.152C169.755 940.192 170.859 939.424 172.139 938.848C173.419 938.272 174.763 937.984 176.171 937.984C178.091 937.984 179.707 938.384 181.019 939.184C182.331 939.952 183.323 941.12 183.995 942.688C184.667 944.224 185.003 946.112 185.003 948.352V964H177.275V948.976C177.275 947.952 177.131 947.104 176.843 946.432C176.555 945.76 176.107 945.264 175.499 944.944C174.923 944.592 174.203 944.432 173.339 944.464C172.667 944.464 172.043 944.576 171.467 944.8C170.891 944.992 170.395 945.296 169.979 945.712C169.563 946.096 169.227 946.544 168.971 947.056C168.747 947.568 168.635 948.128 168.635 948.736V964H164.843C163.947 964 163.179 964 162.539 964C161.899 964 161.371 964 160.955 964ZM201.072 964.528C198.864 964.528 196.896 963.968 195.168 962.848C193.472 961.696 192.128 960.128 191.136 958.144C190.144 956.128 189.648 953.84 189.648 951.28C189.648 948.72 190.144 946.448 191.136 944.464C192.128 942.448 193.488 940.864 195.216 939.712C196.944 938.56 198.928 937.984 201.168 937.984C202.32 937.984 203.424 938.16 204.48 938.512C205.536 938.864 206.496 939.344 207.36 939.952C208.224 940.56 208.928 941.264 209.472 942.064C210.016 942.832 210.336 943.632 210.432 944.464L208.608 944.896V928.48H216.336V964H209.184L208.752 958.192L210.288 958.432C210.192 959.232 209.872 960 209.328 960.736C208.816 961.472 208.144 962.128 207.312 962.704C206.48 963.248 205.52 963.68 204.432 964C203.376 964.352 202.256 964.528 201.072 964.528ZM203.04 958.144C204.224 958.144 205.248 957.856 206.112 957.28C206.976 956.704 207.632 955.904 208.08 954.88C208.56 953.856 208.8 952.656 208.8 951.28C208.8 949.872 208.56 948.656 208.08 947.632C207.632 946.608 206.976 945.808 206.112 945.232C205.248 944.656 204.224 944.368 203.04 944.368C201.856 944.368 200.832 944.656 199.968 945.232C199.136 945.808 198.48 946.608 198 947.632C197.52 948.656 197.28 949.872 197.28 951.28C197.28 952.656 197.52 953.856 198 954.88C198.48 955.904 199.136 956.704 199.968 957.28C200.832 957.856 201.856 958.144 203.04 958.144ZM231.422 964.48C228.926 964.48 226.718 964.08 224.798 963.28C222.91 962.48 221.406 961.408 220.286 960.064L224.942 956.032C225.934 957.024 227.054 957.76 228.302 958.24C229.55 958.688 230.734 958.912 231.854 958.912C232.302 958.912 232.702 958.864 233.054 958.768C233.406 958.672 233.694 958.544 233.918 958.384C234.174 958.192 234.366 957.984 234.494 957.76C234.622 957.504 234.686 957.216 234.686 956.896C234.686 956.256 234.398 955.76 233.822 955.408C233.534 955.248 233.054 955.056 232.382 954.832C231.71 954.608 230.846 954.352 229.79 954.064C228.286 953.68 226.974 953.232 225.854 952.72C224.766 952.176 223.87 951.552 223.166 950.848C222.526 950.176 222.03 949.44 221.678 948.64C221.326 947.808 221.15 946.88 221.15 945.856C221.15 944.672 221.422 943.6 221.966 942.64C222.542 941.68 223.294 940.848 224.222 940.144C225.182 939.44 226.27 938.912 227.486 938.56C228.734 938.176 230.014 937.984 231.326 937.984C232.734 937.984 234.078 938.144 235.358 938.464C236.638 938.784 237.822 939.232 238.91 939.808C240.03 940.384 241.022 941.072 241.886 941.872L237.854 946.384C237.278 945.84 236.622 945.36 235.886 944.944C235.182 944.496 234.446 944.144 233.678 943.888C232.91 943.632 232.206 943.504 231.566 943.504C231.086 943.504 230.654 943.552 230.27 943.648C229.918 943.712 229.614 943.84 229.358 944.032C229.102 944.192 228.91 944.4 228.782 944.656C228.654 944.88 228.59 945.152 228.59 945.472C228.59 945.792 228.67 946.096 228.83 946.384C229.022 946.672 229.278 946.912 229.598 947.104C229.918 947.296 230.43 947.52 231.134 947.776C231.838 948 232.798 948.288 234.014 948.64C235.518 949.056 236.814 949.52 237.902 950.032C238.99 950.544 239.854 951.152 240.494 951.856C241.006 952.4 241.39 953.04 241.646 953.776C241.902 954.48 242.03 955.248 242.03 956.08C242.03 957.712 241.566 959.168 240.638 960.448C239.742 961.696 238.494 962.688 236.894 963.424C235.294 964.128 233.47 964.48 231.422 964.48Z" fill="white"/>
<circle cx="432" cy="418" r="345" stroke="white" stroke-opacity="0.38" stroke-width="2"/>
<circle cx="431.5" cy="418.5" r="306.5" stroke="white" stroke-opacity="0.38" stroke-width="2"/>
<circle cx="431.5" cy="418.5" r="264.5" stroke="white" stroke-opacity="0.38" stroke-width="2"/>
<circle cx="431.5" cy="418.5" r="213.5" stroke="white" stroke-opacity="0.38" stroke-width="2"/>
<path d="M591.632 -54H588.574V109.14H591.632V-54Z" fill="#EBEBEB"/>
<path d="M598.579 95.541H581.61V107.015H598.579V95.541Z" fill="#DBDBDB"/>
<path d="M598.579 99.3601H581.61V107.015H598.579V99.3601Z" fill="#C7C7C7"/>
<path d="M593.082 195.649C600.105 193.996 604.459 186.964 602.807 179.94C601.154 172.917 594.121 168.564 587.098 170.216C580.075 171.868 575.721 178.901 577.374 185.924C579.026 192.948 586.059 197.301 593.082 195.649Z" fill="#EBEBEB"/>
<path d="M632.621 182.943H547.586L562.982 155.658L575.545 104.976H604.662L617.224 155.658L632.621 182.943Z" fill="#DBDBDB"/>
<path d="M433.52 -54H430.462V82.3046H433.52V-54Z" fill="#EBEBEB"/>
<path d="M440.485 68.7053H423.516V80.1792H440.485V68.7053Z" fill="#DBDBDB"/>
<path d="M440.485 72.5242H423.516V80.1792H440.485V72.5242Z" fill="#C7C7C7"/>
<path d="M445.064 156.107C445.054 158.689 444.279 161.21 442.837 163.351C441.395 165.493 439.352 167.159 436.964 168.14C434.576 169.121 431.951 169.372 429.42 168.862C426.889 168.352 424.566 167.104 422.745 165.275C420.923 163.446 419.684 161.118 419.184 158.585C418.684 156.053 418.946 153.429 419.936 151.044C420.926 148.66 422.601 146.623 424.748 145.19C426.895 143.757 429.419 142.992 432 142.992C433.721 142.99 435.425 143.328 437.014 143.987C438.603 144.646 440.047 145.612 441.261 146.831C442.475 148.05 443.436 149.498 444.089 151.09C444.742 152.682 445.073 154.387 445.064 156.107Z" fill="#EBEBEB"/>
<path d="M474.509 156.107H389.491L404.888 128.822L417.45 78.1401H446.55L459.112 128.822L474.509 156.107Z" fill="#DBDBDB"/>
<path d="M281.871 -54H278.812V54.2765H281.871V-54Z" fill="#EBEBEB"/>
<path d="M288.818 40.677H271.849V52.1509H288.818V40.677Z" fill="#DBDBDB"/>
<path d="M288.818 44.4961H271.849V52.1511H288.818V44.4961Z" fill="#C7C7C7"/>
<path d="M293.397 128.079C293.397 130.663 292.631 133.189 291.195 135.337C289.76 137.485 287.72 139.16 285.332 140.149C282.945 141.137 280.319 141.396 277.785 140.892C275.251 140.388 272.923 139.144 271.096 137.317C269.269 135.49 268.025 133.162 267.521 130.628C267.016 128.094 267.275 125.467 268.264 123.08C269.253 120.693 270.927 118.653 273.075 117.217C275.224 115.782 277.749 115.016 280.333 115.016C283.798 115.016 287.121 116.392 289.571 118.842C292.021 121.292 293.397 124.615 293.397 128.079Z" fill="#EBEBEB"/>
<path d="M322.86 128.079H237.825L253.221 100.777L265.784 50.1121H294.901L307.463 100.777L322.86 128.079Z" fill="#DBDBDB"/>
<path d="M760.718 524.431C736.318 557.453 710.899 595.728 704.696 637.2C704.696 637.839 705.629 638.047 705.784 637.425C708.584 626.123 712.188 615.036 716.567 604.247C732.603 599.841 748.328 596.212 756.76 580.297C765.4 563.95 764.243 542.609 762.618 524.794C762.497 523.843 761.201 523.791 760.718 524.431Z" fill="#EBEBEB"/>
<path d="M716.809 603.936C727.764 579.364 741.83 554.671 759.698 534.453C759.819 534.315 760.009 534.453 759.905 534.66C748.189 549.055 739.307 564.728 730.616 580.694C738.685 572.486 747.533 565.142 755.188 556.502C755.343 556.33 755.568 556.589 755.43 556.744C747.844 565.868 739.532 575.752 729.648 582.509C726.987 587.416 724.326 592.324 721.613 597.231C722.269 596.851 722.96 596.523 723.634 596.195C723.755 596.195 723.859 596.315 723.738 596.367C722.995 596.747 722.235 597.145 721.457 597.491C720.178 599.806 718.9 602.139 717.586 604.403C717.293 604.921 716.567 604.454 716.809 603.936Z" fill="#A6A6A6"/>
<path d="M724.948 595.365C731.506 591.693 737.769 587.516 743.679 582.872C743.835 582.733 744.059 582.958 743.904 583.096C738.181 588.037 731.914 592.309 725.224 595.832C724.913 595.987 724.654 595.538 724.948 595.365Z" fill="#A6A6A6"/>
<path d="M701.879 631.048C701.879 631.549 702.777 631.549 702.777 631.048C702.898 617.397 702.777 603.694 702.985 590.008C706.441 582.941 713.992 579.053 719.193 573.402C722.946 569.275 726.211 564.729 728.922 559.855C735.215 548.212 739.055 535.403 740.206 522.219C741.657 507.634 736.111 459.492 729.959 461.151C726.779 462.032 716.463 485.879 713.716 493.759C709.282 506.762 706.031 520.139 704.004 533.727C699.028 565.782 699.442 598.752 701.879 631.048Z" fill="#EBEBEB"/>
<path d="M701.775 572.21C702.518 554.93 706.406 537.529 710.052 520.785C713.975 502.744 718.554 485.775 727.833 469.688C727.868 469.626 727.925 469.58 727.993 469.561C728.061 469.541 728.134 469.549 728.196 469.584C728.258 469.618 728.304 469.676 728.323 469.744C728.343 469.812 728.334 469.885 728.3 469.947C722.107 482.456 717.314 495.611 714.009 509.172C714.631 508.205 715.392 507.289 716.031 506.356C716.29 505.993 716.878 506.356 716.636 506.719C715.802 508.173 714.829 509.545 713.733 510.814C713.733 510.814 713.647 510.814 713.612 510.814C710.415 523.705 708.117 536.889 706.164 550.04L706.596 549.521C706.62 549.506 706.648 549.498 706.676 549.499C706.704 549.5 706.731 549.51 706.754 549.527C706.777 549.544 706.793 549.567 706.802 549.594C706.811 549.621 706.812 549.65 706.804 549.677C706.562 550.126 706.285 550.558 706.026 550.99C705.024 557.66 704.108 564.33 703.192 570.931C715.081 560.77 725.224 548.795 730.944 534.038C730.944 534.038 731.082 534.038 731.065 534.038C725.449 549.348 716.619 562.948 703.002 572.227C702.76 573.955 702.501 575.787 702.259 577.567C702.259 577.929 701.62 577.826 701.62 577.48C701.62 575.908 701.62 574.318 701.758 572.745C701.722 572.71 701.693 572.668 701.674 572.621C701.656 572.574 701.647 572.524 701.648 572.474C701.65 572.423 701.662 572.374 701.684 572.328C701.706 572.283 701.737 572.243 701.775 572.21Z" fill="#A6A6A6"/>
<path d="M707.374 547.206C716.463 533.641 724.947 520.474 731.566 505.492C731.566 505.336 731.929 505.492 731.86 505.63C726.261 520.508 718.416 535.594 707.806 547.551C707.616 547.793 707.201 547.482 707.374 547.206Z" fill="#A6A6A6"/>
<path d="M719.453 502.157C723.22 495.487 727.177 489.007 730.719 482.233C730.823 482.043 731.082 482.233 731.013 482.388C728.102 489.447 724.423 496.163 720.04 502.416C719.781 502.831 719.228 502.537 719.453 502.157Z" fill="#A6A6A6"/>
<path d="M717.983 505.042V505.161C717.983 505.161 717.915 505.042 717.983 505.042Z" fill="#A6A6A6"/>
<path d="M692.651 591.598C692.469 600.643 691.404 609.648 689.472 618.486C689.627 619.453 689.765 620.421 689.904 621.423C692.67 611.659 694.265 601.601 694.656 591.46C694.738 591.321 694.781 591.163 694.781 591.002C694.781 590.841 694.738 590.683 694.656 590.544C695.053 576.946 694.046 563.344 691.649 549.953C687.433 524.897 678.205 500.826 660.718 482.043C660.572 481.921 660.401 481.833 660.217 481.787C660.033 481.74 659.84 481.736 659.654 481.774C659.468 481.813 659.293 481.892 659.142 482.008C658.991 482.123 658.868 482.271 658.782 482.44C651.732 500.377 654.186 521.787 660.199 539.672C663.454 549.364 668.112 558.528 674.023 566.87C680.141 575.268 687.744 582.388 692.651 591.598Z" fill="#EBEBEB"/>
<path d="M662.861 490.406C679.415 517.294 690.958 549.158 692.358 580.936C692.358 581.507 691.442 581.645 691.355 581.075C690.975 578.223 690.526 575.39 690.077 572.573C683.165 566.007 676.253 559.077 671.276 550.869C671.266 550.838 671.265 550.804 671.276 550.772C671.286 550.74 671.306 550.713 671.333 550.693C671.36 550.674 671.393 550.664 671.426 550.665C671.459 550.665 671.491 550.676 671.518 550.696C677.48 557.505 683.044 564.52 689.783 570.568C688.591 563.535 687.191 556.623 685.515 549.832L684.201 548.294C683.925 547.966 684.409 547.465 684.703 547.811L685.1 548.243C682.77 538.915 679.885 529.734 676.46 520.75C672.244 515.704 667.526 511.367 664.45 505.302C664.364 505.146 664.571 505.043 664.675 505.181C667.146 508.637 669.531 512.093 672.33 515.342C673.453 516.62 674.68 517.83 675.786 519.074C671.959 509.333 667.426 499.884 662.221 490.804C662.184 490.72 662.179 490.626 662.206 490.538C662.233 490.451 662.291 490.376 662.368 490.328C662.446 490.279 662.539 490.261 662.629 490.275C662.72 490.29 662.802 490.336 662.861 490.406Z" fill="#A6A6A6"/>
<path d="M666.196 523.584C671.553 530.79 677.67 537.667 682.647 545.115C682.785 545.322 682.474 545.547 682.301 545.374C675.89 539.378 670.481 531.187 665.85 523.791C665.695 523.549 666.04 523.359 666.196 523.584Z" fill="#A6A6A6"/>
<path d="M683.389 546.774L683.614 546.998C683.769 547.171 683.528 547.413 683.372 547.258L683.147 547.016C683.122 546.982 683.11 546.941 683.113 546.9C683.116 546.858 683.134 546.819 683.163 546.79C683.193 546.76 683.232 546.743 683.273 546.74C683.315 546.737 683.356 546.749 683.389 546.774Z" fill="#A6A6A6"/>
<path d="M636.889 542.16C638.22 555.984 645.529 572.521 654.376 583.183C658.281 587.82 663.114 591.587 668.563 594.242C674.698 597.283 681.126 600.791 687.571 603.279C690.59 610.968 692.83 618.939 694.259 627.074L694.881 624.966C690.803 589.939 668.131 560.01 639.153 540.795C638.927 540.62 638.653 540.517 638.367 540.5C638.082 540.484 637.798 540.554 637.553 540.701C637.308 540.849 637.113 541.067 636.995 541.328C636.876 541.588 636.84 541.878 636.889 542.16Z" fill="#EBEBEB"/>
<path d="M646.911 552.528C646.704 552.355 646.911 551.992 647.205 552.148C663.133 563.998 675.835 579.653 684.149 597.681C684.357 598.164 683.7 598.579 683.424 598.095C682.076 595.791 680.705 593.487 679.311 591.183C672.693 589.939 666.42 585.291 661.513 580.815C661.374 580.694 661.513 580.504 661.703 580.608C664.238 582.915 667.054 584.895 670.083 586.5C672.779 587.865 675.682 588.729 678.482 589.835C676.028 585.93 673.488 582.198 670.809 578.586C663.667 575.855 656.966 572.088 650.92 567.406C650.73 567.268 650.92 566.957 651.11 567.078C657.091 570.703 663.263 574.002 669.6 576.962C665.564 571.632 661.207 566.554 656.553 561.755C654.29 560.563 652.009 559.371 649.831 558.092C649.801 558.065 649.781 558.028 649.773 557.988C649.765 557.949 649.771 557.907 649.788 557.871C649.805 557.834 649.834 557.804 649.87 557.784C649.906 557.765 649.947 557.758 649.987 557.764C651.81 558.393 653.551 559.24 655.171 560.287C652.492 557.608 649.728 554.999 646.911 552.528Z" fill="#A6A6A6"/>
<path d="M647.533 564.624C647.922 564.859 648.292 565.125 648.639 565.419C648.657 565.44 648.667 565.466 648.668 565.493C648.669 565.52 648.661 565.546 648.645 565.568C648.629 565.59 648.606 565.606 648.58 565.613C648.554 565.621 648.526 565.619 648.501 565.609C648.1 565.417 647.713 565.198 647.343 564.952C647.303 564.926 647.275 564.884 647.264 564.837C647.253 564.79 647.26 564.741 647.284 564.699C647.309 564.657 647.348 564.626 647.394 564.612C647.44 564.598 647.49 564.603 647.533 564.624Z" fill="#A6A6A6"/>
<path d="M740.033 702.864H660.597L667.008 630.513L668.408 614.563H732.223L733.622 630.513L740.033 702.864Z" fill="#C7C7C7"/>
<path d="M733.622 630.513H667.008L668.407 614.563H732.223L733.622 630.513Z" fill="#A6A6A6"/>
<path d="M736.024 603.4H664.623V619.194H736.024V603.4Z" fill="#C7C7C7"/>
<path d="M344.459 492.618H125.625V342.904H344.459V492.618ZM127.353 490.89H342.731V344.632H127.353V490.89Z" fill="#EBEBEB"/>
<path d="M142.733 352.546C142.733 353.408 142.477 354.25 141.999 354.966C141.52 355.682 140.84 356.24 140.044 356.57C139.249 356.899 138.373 356.985 137.528 356.817C136.684 356.649 135.908 356.235 135.299 355.626C134.69 355.017 134.275 354.241 134.107 353.396C133.939 352.551 134.025 351.676 134.355 350.88C134.684 350.084 135.243 349.404 135.959 348.926C136.675 348.447 137.517 348.192 138.378 348.192C139.533 348.192 140.64 348.651 141.457 349.467C142.274 350.284 142.733 351.392 142.733 352.546Z" fill="#A6A6A6"/>
<path d="M160.514 352.546C160.514 353.408 160.258 354.25 159.78 354.966C159.301 355.682 158.621 356.24 157.826 356.57C157.03 356.899 156.154 356.985 155.31 356.817C154.465 356.649 153.689 356.235 153.08 355.626C152.471 355.017 152.056 354.241 151.888 353.396C151.72 352.551 151.807 351.676 152.136 350.88C152.466 350.084 153.024 349.404 153.74 348.926C154.456 348.447 155.298 348.192 156.159 348.192C157.314 348.192 158.422 348.651 159.238 349.467C160.055 350.284 160.514 351.392 160.514 352.546Z" fill="#EBEBEB"/>
<path d="M178.295 352.546C178.295 353.408 178.04 354.25 177.561 354.966C177.083 355.682 176.403 356.24 175.607 356.57C174.811 356.899 173.936 356.985 173.091 356.817C172.246 356.649 171.47 356.235 170.861 355.626C170.252 355.017 169.838 354.241 169.67 353.396C169.502 352.551 169.588 351.676 169.917 350.88C170.247 350.084 170.805 349.404 171.521 348.926C172.237 348.447 173.079 348.192 173.941 348.192C174.513 348.19 175.08 348.301 175.61 348.519C176.139 348.737 176.62 349.057 177.025 349.462C177.43 349.867 177.75 350.348 177.968 350.877C178.186 351.407 178.297 351.974 178.295 352.546Z" fill="#165C5D"/>
<path d="M343.595 360.219H126.489V361.947H343.595V360.219Z" fill="#EBEBEB"/>
<path d="M672.693 418.522C669.269 420.658 665.523 422.227 661.6 423.17C652.197 425.469 642.273 424.138 633.809 419.444C625.344 414.749 618.96 407.036 615.931 397.842C612.902 388.649 613.45 378.652 617.467 369.845C621.483 361.038 628.672 354.069 637.599 350.328C646.527 346.588 656.536 346.35 665.631 349.664C674.726 352.977 682.237 359.597 686.666 368.204C691.095 376.811 692.117 386.771 689.527 396.097C686.937 405.424 680.926 413.431 672.693 418.522Z" fill="#EBEBEB"/>
<path d="M664.174 381.456C664.174 383.77 663.488 386.031 662.202 387.955C660.917 389.879 659.09 391.379 656.952 392.264C654.815 393.149 652.462 393.381 650.193 392.93C647.924 392.478 645.839 391.364 644.203 389.728C642.567 388.092 641.453 386.007 641.002 383.738C640.55 381.469 640.782 379.117 641.667 376.979C642.553 374.841 644.052 373.014 645.976 371.729C647.9 370.443 650.162 369.757 652.475 369.757C655.577 369.762 658.55 370.996 660.743 373.189C662.935 375.382 664.169 378.355 664.174 381.456Z" fill="white"/>
<path d="M672.693 413.701V418.522C669.269 420.658 665.523 422.227 661.599 423.17C656.639 424.394 651.484 424.612 646.439 423.81C641.394 423.009 636.56 421.205 632.223 418.504V413.701C632.223 408.338 634.353 403.196 638.145 399.405C641.936 395.613 647.079 393.483 652.441 393.483C657.803 393.483 662.945 395.613 666.737 399.405C670.528 403.196 672.658 408.338 672.658 413.701H672.693Z" fill="white"/>
<path d="M45.2393 703.382L141.938 702.968L238.62 702.812L432 702.518L625.381 702.812L722.08 702.968L818.761 703.382L722.08 703.814L625.381 703.953L432 704.246L238.62 703.953L141.938 703.814L45.2393 703.382Z" fill="#263238"/>
<path d="M349.108 685.135H128.96V703.365H349.108V685.135Z" fill="#455A64"/>
<path d="M768.269 685.135H349.09V703.365H768.269V685.135Z" fill="#37474F"/>
<path d="M548.173 685.135H128.96L71.8154 416.31H491.028L548.173 685.135Z" fill="#263238"/>
<path d="M261.36 668.149H142.318L92.396 433.279H211.438L261.36 668.149Z" fill="white"/>
<path d="M139.83 521.424C138.998 522.018 138.059 522.447 137.065 522.686C134.251 523.334 131.297 522.883 128.805 521.424C126.156 519.98 124.037 517.728 122.757 514.996C120.2 509.363 122.429 503.695 127.768 502.33C133.108 500.965 139.501 504.403 142.076 510.019C144.15 514.616 143.096 519.178 139.83 521.424Z" fill="#C7C7C7"/>
<path d="M135.354 511.384C135.455 511.761 135.465 512.156 135.385 512.538C135.304 512.92 135.136 513.277 134.892 513.582C134.648 513.886 134.336 514.129 133.981 514.29C133.626 514.452 133.238 514.528 132.848 514.512C131.944 514.479 131.075 514.151 130.376 513.576C129.677 513.002 129.185 512.213 128.978 511.333C128.868 510.951 128.85 510.55 128.926 510.161C129.002 509.771 129.169 509.406 129.413 509.094C129.658 508.782 129.973 508.532 130.333 508.366C130.693 508.199 131.087 508.12 131.483 508.136C132.395 508.178 133.268 508.519 133.968 509.106C134.667 509.693 135.154 510.493 135.354 511.384Z" fill="white"/>
<path d="M139.553 520.18L139.829 521.493C138.998 522.088 138.059 522.516 137.065 522.755C134.251 523.403 131.296 522.952 128.805 521.493L128.528 520.18C128.339 519.521 128.308 518.827 128.44 518.155C128.571 517.482 128.861 516.851 129.284 516.312C129.708 515.774 130.254 515.344 130.877 515.058C131.499 514.772 132.181 514.638 132.866 514.668C134.427 514.737 135.924 515.312 137.131 516.306C138.337 517.3 139.187 518.66 139.553 520.18Z" fill="white"/>
<path d="M196.767 506.2H149.022L148.141 502.088H195.886L196.767 506.2Z" fill="#C7C7C7"/>
<path d="M215.862 513.752H150.63L150.111 511.384H215.361L215.862 513.752Z" fill="#C7C7C7"/>
<path d="M216.95 518.867H151.701L151.2 516.499H216.432L216.95 518.867Z" fill="#C7C7C7"/>
<path d="M146.88 554.256C146.052 554.847 145.12 555.275 144.132 555.518C141.313 556.167 138.353 555.716 135.855 554.256C133.207 552.816 131.093 550.562 129.825 547.828C127.25 542.195 129.479 536.527 134.818 535.162C140.158 533.797 146.552 537.235 149.126 542.851C151.113 547.344 150.059 551.958 146.88 554.256Z" fill="#165C5D"/>
<path d="M142.318 544.165C142.428 544.545 142.446 544.946 142.371 545.334C142.295 545.723 142.128 546.088 141.883 546.399C141.638 546.709 141.322 546.957 140.962 547.122C140.602 547.286 140.208 547.363 139.812 547.344C138.909 547.309 138.041 546.979 137.343 546.405C136.644 545.831 136.152 545.044 135.942 544.165C135.832 543.784 135.814 543.382 135.89 542.993C135.966 542.603 136.133 542.238 136.377 541.926C136.622 541.614 136.937 541.364 137.297 541.198C137.657 541.031 138.051 540.952 138.447 540.968C139.352 541.007 140.22 541.34 140.918 541.917C141.617 542.494 142.108 543.283 142.318 544.165Z" fill="white"/>
<path d="M146.517 552.96L146.88 554.256C146.052 554.847 145.12 555.275 144.132 555.517C141.313 556.167 138.353 555.716 135.855 554.256L135.579 552.943C135.389 552.284 135.358 551.59 135.49 550.918C135.621 550.245 135.911 549.613 136.335 549.075C136.758 548.536 137.304 548.106 137.927 547.82C138.55 547.534 139.231 547.401 139.916 547.43C141.465 547.519 142.944 548.104 144.133 549.101C145.322 550.097 146.158 551.45 146.517 552.96Z" fill="white"/>
<path d="M203.731 538.998H155.986L155.105 534.868H202.867L203.731 538.998Z" fill="#C7C7C7"/>
<path d="M222.825 546.532H157.593L157.092 544.165H222.324L222.825 546.532Z" fill="#C7C7C7"/>
<path d="M223.914 551.647H158.682L158.164 549.279H223.413L223.914 551.647Z" fill="#C7C7C7"/>
<path d="M153.792 587.088C152.964 587.679 152.032 588.107 151.044 588.35C148.214 589.008 145.24 588.557 142.733 587.088C140.085 585.648 137.971 583.394 136.702 580.66C134.127 575.044 136.374 569.359 141.696 567.994C147.018 566.629 153.446 570.067 156.021 575.683C158.077 580.176 157.023 584.738 153.792 587.088Z" fill="#455A64"/>
<path d="M149.281 576.945C149.402 577.328 149.428 577.735 149.357 578.13C149.286 578.526 149.12 578.899 148.874 579.216C148.628 579.534 148.308 579.787 147.943 579.954C147.578 580.121 147.177 580.197 146.776 580.176C145.872 580.141 145.005 579.811 144.306 579.237C143.607 578.663 143.115 577.876 142.905 576.997C142.795 576.614 142.777 576.211 142.854 575.82C142.931 575.43 143.099 575.063 143.346 574.75C143.592 574.438 143.91 574.189 144.272 574.023C144.634 573.858 145.03 573.781 145.428 573.8C146.324 573.837 147.184 574.163 147.879 574.73C148.573 575.297 149.065 576.074 149.281 576.945Z" fill="white"/>
<path d="M153.481 585.74L153.792 587.088C152.964 587.679 152.032 588.107 151.044 588.35C148.215 589.008 145.24 588.557 142.733 587.088L142.456 585.775C142.251 585.104 142.211 584.393 142.341 583.704C142.47 583.014 142.765 582.366 143.2 581.816C143.635 581.265 144.197 580.828 144.838 580.543C145.479 580.257 146.18 580.131 146.88 580.176C148.434 580.264 149.918 580.853 151.109 581.857C152.299 582.86 153.132 584.223 153.481 585.74Z" fill="white"/>
<path d="M210.712 571.778H162.95L162.086 567.648H209.831L210.712 571.778Z" fill="#C7C7C7"/>
<path d="M229.789 579.312H164.557L164.056 576.945H229.288L229.789 579.312Z" fill="#C7C7C7"/>
<path d="M230.878 584.427H165.646L165.145 582.06H230.377L230.878 584.427Z" fill="#C7C7C7"/>
<path d="M160.704 619.92C159.875 620.513 158.943 620.947 157.956 621.199C155.135 621.832 152.178 621.376 149.679 619.92C147.039 618.47 144.927 616.219 143.648 613.492C141.091 607.824 143.424 602.104 148.608 600.739C153.792 599.374 160.341 602.813 162.916 608.429C165.041 613.008 164.004 617.518 160.704 619.92Z" fill="#263238"/>
<path d="M156.263 609.725C156.384 610.108 156.412 610.515 156.344 610.911C156.277 611.308 156.115 611.682 155.873 612.003C155.632 612.324 155.317 612.583 154.955 612.758C154.592 612.933 154.194 613.019 153.792 613.008C152.887 612.969 152.019 612.635 151.321 612.059C150.622 611.482 150.131 610.693 149.921 609.811C149.815 609.429 149.8 609.027 149.879 608.638C149.957 608.249 150.126 607.884 150.372 607.573C150.617 607.261 150.933 607.012 151.293 606.846C151.653 606.679 152.048 606.6 152.444 606.614C153.329 606.659 154.176 606.985 154.863 607.545C155.549 608.104 156.04 608.868 156.263 609.725Z" fill="white"/>
<path d="M160.444 618.521L160.704 619.92C159.875 620.513 158.943 620.947 157.956 621.199C155.134 621.833 152.178 621.376 149.679 619.92L149.402 618.607C149.198 617.939 149.158 617.232 149.286 616.545C149.414 615.858 149.706 615.212 150.137 614.663C150.568 614.113 151.125 613.676 151.761 613.388C152.398 613.099 153.094 612.969 153.792 613.008C155.349 613.079 156.841 613.655 158.041 614.65C159.242 615.645 160.085 617.003 160.444 618.521Z" fill="white"/>
<path d="M217.676 604.558H169.914L169.05 600.428H216.794L217.676 604.558Z" fill="#C7C7C7"/>
<path d="M236.753 612.092H171.521L171.02 609.725H236.252L236.753 612.092Z" fill="#C7C7C7"/>
<path d="M237.842 617.207H172.61L172.108 614.84H237.34L237.842 617.207Z" fill="#C7C7C7"/>
<path d="M167.702 652.614C166.867 653.207 165.93 653.641 164.937 653.893C162.122 654.527 159.17 654.07 156.678 652.614C154.029 651.17 151.91 648.918 150.63 646.186C148.072 640.57 150.301 634.884 155.641 633.519C160.98 632.154 167.374 635.593 169.949 641.226C172.022 645.84 170.968 650.298 167.702 652.614Z" fill="#C7C7C7"/>
<path d="M163.227 642.505C163.337 642.888 163.354 643.291 163.278 643.681C163.201 644.072 163.032 644.439 162.786 644.751C162.539 645.064 162.222 645.313 161.86 645.478C161.498 645.644 161.101 645.72 160.704 645.702C159.801 645.662 158.936 645.328 158.24 644.751C157.544 644.174 157.056 643.385 156.85 642.505C156.741 642.124 156.723 641.722 156.799 641.333C156.874 640.944 157.041 640.578 157.286 640.266C157.531 639.954 157.846 639.705 158.206 639.538C158.565 639.372 158.96 639.293 159.356 639.308C160.261 639.348 161.128 639.681 161.827 640.258C162.526 640.835 163.017 641.624 163.227 642.505Z" fill="white"/>
<path d="M167.426 651.301L167.702 652.614C166.867 653.207 165.93 653.641 164.937 653.893C162.122 654.527 159.17 654.07 156.678 652.614L156.384 651.301C156.208 650.647 156.188 649.962 156.325 649.299C156.462 648.636 156.751 648.015 157.171 647.484C157.591 646.954 158.129 646.529 158.742 646.243C159.356 645.958 160.028 645.82 160.704 645.84C162.264 645.902 163.762 646.467 164.974 647.451C166.186 648.436 167.046 649.786 167.426 651.301Z" fill="white"/>
<path d="M224.64 637.338H176.895L176.014 633.208H223.776L224.64 637.338Z" fill="#C7C7C7"/>
<path d="M243.734 644.872H178.502L177.984 642.505H243.216L243.734 644.872Z" fill="#C7C7C7"/>
<path d="M244.823 649.987H179.573L179.072 647.62H244.304L244.823 649.987Z" fill="#C7C7C7"/>
<path d="M121.91 465.575C121.388 465.944 120.802 466.214 120.182 466.37C118.416 466.778 116.561 466.493 114.998 465.575C113.354 464.679 112.039 463.28 111.248 461.583C109.641 458.127 111.041 454.55 114.359 453.686C116.168 453.378 118.028 453.683 119.644 454.553C121.26 455.424 122.538 456.81 123.275 458.49C123.919 459.643 124.136 460.986 123.886 462.282C123.636 463.578 122.936 464.745 121.91 465.575Z" fill="#C7C7C7"/>
<path d="M119.111 459.216C119.18 459.453 119.191 459.702 119.144 459.944C119.098 460.186 118.994 460.414 118.842 460.608C118.69 460.802 118.494 460.957 118.271 461.06C118.047 461.164 117.802 461.213 117.556 461.203C116.993 461.18 116.454 460.973 116.02 460.614C115.586 460.255 115.282 459.764 115.154 459.216C115.085 458.979 115.074 458.73 115.121 458.488C115.167 458.246 115.271 458.018 115.423 457.824C115.575 457.63 115.77 457.475 115.994 457.371C116.218 457.268 116.463 457.219 116.709 457.229C117.271 457.255 117.809 457.462 118.242 457.821C118.675 458.179 118.98 458.669 119.111 459.216Z" fill="white"/>
<path d="M121.72 464.763L121.91 465.575C121.388 465.944 120.802 466.214 120.182 466.37C118.416 466.778 116.561 466.493 114.998 465.575L114.826 464.763C114.708 464.351 114.689 463.916 114.772 463.496C114.854 463.075 115.035 462.68 115.3 462.343C115.565 462.006 115.906 461.736 116.295 461.556C116.684 461.376 117.11 461.29 117.538 461.307C118.518 461.346 119.457 461.705 120.213 462.329C120.968 462.953 121.498 463.808 121.72 464.763Z" fill="white"/>
<path d="M203.644 461.463C203.624 461.398 203.621 461.329 203.633 461.262C203.646 461.195 203.675 461.133 203.718 461.08C203.761 461.027 203.816 460.985 203.878 460.959C203.941 460.932 204.009 460.921 204.076 460.927C204.231 460.933 204.38 460.988 204.501 461.084C204.623 461.18 204.71 461.313 204.75 461.463C204.766 461.53 204.767 461.599 204.751 461.666C204.736 461.734 204.705 461.796 204.662 461.85C204.619 461.903 204.563 461.946 204.501 461.975C204.438 462.003 204.37 462.017 204.301 462.015C204.145 462.011 203.996 461.954 203.877 461.853C203.757 461.753 203.676 461.615 203.644 461.463Z" fill="#C7C7C7"/>
<path d="M203.178 459.216C203.159 459.15 203.155 459.081 203.168 459.013C203.181 458.946 203.21 458.883 203.252 458.829C203.294 458.775 203.349 458.731 203.411 458.703C203.473 458.674 203.542 458.66 203.61 458.663C203.768 458.667 203.92 458.723 204.042 458.824C204.164 458.924 204.249 459.062 204.284 459.216C204.303 459.282 204.307 459.351 204.294 459.419C204.281 459.486 204.252 459.549 204.21 459.603C204.168 459.657 204.113 459.7 204.051 459.729C203.989 459.758 203.92 459.772 203.852 459.769C203.694 459.765 203.542 459.709 203.42 459.608C203.298 459.508 203.213 459.37 203.178 459.216Z" fill="#C7C7C7"/>
<path d="M202.711 457.108C202.692 457.042 202.689 456.973 202.702 456.905C202.714 456.838 202.743 456.775 202.785 456.72C202.828 456.666 202.882 456.623 202.944 456.594C203.007 456.566 203.075 456.552 203.143 456.555C203.301 456.559 203.453 456.615 203.575 456.715C203.697 456.816 203.783 456.954 203.817 457.108C203.836 457.174 203.84 457.243 203.827 457.31C203.814 457.378 203.785 457.441 203.743 457.495C203.701 457.549 203.646 457.592 203.584 457.621C203.522 457.65 203.454 457.663 203.385 457.661C203.229 457.651 203.08 457.593 202.959 457.493C202.838 457.394 202.751 457.259 202.711 457.108Z" fill="#C7C7C7"/>
<path d="M195.609 460.685H189.302L188.421 456.555H194.728L195.609 460.685Z" fill="#C7C7C7"/>
<path d="M189.302 460.685L189.579 462.015L190.667 460.685H189.302Z" fill="#C7C7C7"/>
<path d="M193.76 457.661H189.855L189.769 457.263H193.674L193.76 457.661Z" fill="white"/>
<path d="M193.933 458.473H190.028L189.941 458.093H193.864L193.933 458.473Z" fill="white"/>
<path d="M194.106 459.285H190.201L190.132 458.905H194.037L194.106 459.285Z" fill="white"/>
<path d="M480.367 445.98H95.0917L92.396 433.279H477.671L480.367 445.98Z" fill="#37474F"/>
<path d="M103.835 439.62C103.945 439.997 103.964 440.394 103.89 440.779C103.816 441.164 103.652 441.526 103.411 441.835C103.169 442.144 102.858 442.391 102.502 442.556C102.146 442.721 101.756 442.798 101.364 442.783C100.47 442.746 99.6116 442.416 98.9219 441.845C98.2321 441.274 97.7486 440.493 97.5454 439.62C97.4387 439.245 97.4224 438.85 97.4978 438.467C97.5732 438.084 97.7381 437.725 97.9792 437.418C98.2202 437.111 98.5305 436.866 98.8846 436.702C99.2387 436.538 99.6265 436.461 100.016 436.475C100.909 436.512 101.765 436.838 102.454 437.406C103.144 437.974 103.629 438.751 103.835 439.62Z" fill="#C7C7C7"/>
<path d="M116.709 439.62C116.815 439.998 116.831 440.395 116.755 440.78C116.678 441.165 116.512 441.526 116.269 441.835C116.027 442.143 115.715 442.39 115.359 442.554C115.002 442.719 114.612 442.797 114.22 442.783C113.327 442.74 112.472 442.409 111.784 441.838C111.095 441.268 110.61 440.49 110.402 439.62C110.294 439.244 110.278 438.847 110.354 438.463C110.431 438.078 110.597 437.718 110.84 437.411C111.083 437.104 111.396 436.859 111.752 436.696C112.109 436.533 112.499 436.458 112.89 436.475C113.782 436.512 114.638 436.838 115.328 437.406C116.017 437.974 116.502 438.751 116.709 439.62Z" fill="white"/>
<path d="M129.6 439.62C129.71 439.997 129.729 440.394 129.655 440.779C129.581 441.164 129.417 441.526 129.175 441.835C128.934 442.144 128.622 442.391 128.266 442.556C127.911 442.721 127.521 442.798 127.129 442.783C126.234 442.746 125.376 442.416 124.687 441.845C123.997 441.274 123.513 440.493 123.31 439.62C123.203 439.245 123.187 438.85 123.262 438.467C123.338 438.084 123.503 437.725 123.744 437.418C123.985 437.111 124.295 436.866 124.649 436.702C125.003 436.538 125.391 436.461 125.781 436.475C126.673 436.512 127.53 436.838 128.219 437.406C128.908 437.974 129.393 438.751 129.6 439.62Z" fill="#165C5D"/>
<path d="M480.366 445.979H214.133L261.36 668.148H527.593L480.366 445.979Z" fill="#EBEBEB"/>
<path d="M504.593 657.435H283.513L280.748 644.492H501.846L504.593 657.435Z" fill="white"/>
<path d="M500.17 651.128C500.279 651.509 500.297 651.91 500.221 652.3C500.145 652.689 499.978 653.054 499.734 653.367C499.489 653.679 499.174 653.928 498.814 654.095C498.454 654.261 498.06 654.34 497.664 654.325C496.76 654.282 495.893 653.948 495.195 653.372C494.497 652.795 494.005 652.008 493.793 651.128C493.686 650.746 493.671 650.345 493.749 649.957C493.828 649.568 493.997 649.204 494.243 648.894C494.489 648.584 494.805 648.336 495.166 648.172C495.526 648.007 495.92 647.931 496.316 647.948C497.217 647.987 498.08 648.319 498.775 648.893C499.471 649.466 499.96 650.251 500.17 651.128Z" fill="#165C5D"/>
<path d="M496.005 649.296L498.372 651.128L496.8 652.977L496.299 652.545L497.491 651.128L495.694 649.728L496.005 649.296Z" fill="white"/>
<path d="M286.588 654.826H285.742L284.1 647.102H284.947L286.588 654.826Z" fill="#263238"/>
<path d="M513.216 657.538C513.14 657.537 513.067 657.511 513.008 657.464C512.949 657.417 512.906 657.352 512.887 657.279L512.231 654.169C512.219 654.137 512.216 654.102 512.221 654.068C512.226 654.034 512.24 654.002 512.26 653.975C512.281 653.948 512.308 653.926 512.339 653.911C512.37 653.897 512.404 653.89 512.438 653.892C512.515 653.898 512.588 653.927 512.648 653.977C512.707 654.027 512.748 654.094 512.766 654.169L513.423 657.279C513.431 657.31 513.432 657.343 513.425 657.375C513.418 657.406 513.404 657.436 513.384 657.461C513.364 657.486 513.338 657.506 513.309 657.52C513.28 657.533 513.248 657.54 513.216 657.538Z" fill="#A6A6A6"/>
<path d="M514.944 657.539H511.488C511.412 657.537 511.339 657.511 511.28 657.464C511.221 657.418 511.178 657.353 511.159 657.279C511.152 657.247 511.151 657.214 511.158 657.182C511.165 657.149 511.178 657.119 511.198 657.093C511.218 657.066 511.243 657.044 511.273 657.029C511.302 657.013 511.334 657.005 511.367 657.003H514.823C514.901 657.005 514.976 657.034 515.035 657.084C515.095 657.134 515.136 657.203 515.151 657.279C515.159 657.311 515.16 657.343 515.153 657.375C515.146 657.406 515.132 657.436 515.112 657.461C515.092 657.486 515.066 657.506 515.037 657.52C515.008 657.533 514.976 657.54 514.944 657.539Z" fill="#A6A6A6"/>
<path d="M513.216 646.687L514.166 651.197C514.24 651.459 514.251 651.735 514.198 652.002C514.144 652.269 514.029 652.52 513.86 652.734C513.692 652.948 513.475 653.119 513.228 653.233C512.981 653.347 512.71 653.402 512.438 653.391C511.999 653.375 511.57 653.255 511.186 653.042C510.802 652.829 510.473 652.528 510.226 652.164C510.017 651.875 509.87 651.546 509.794 651.197L508.827 646.687C508.753 646.425 508.742 646.149 508.795 645.882C508.849 645.615 508.964 645.364 509.133 645.15C509.301 644.936 509.518 644.765 509.765 644.651C510.012 644.536 510.283 644.482 510.555 644.492C511.189 644.49 511.803 644.717 512.283 645.132C512.75 645.498 513.084 646.008 513.233 646.583C513.233 646.583 513.216 646.652 513.216 646.687Z" fill="#A6A6A6"/>
<path d="M512.594 654.48C511.723 654.463 510.882 654.153 510.209 653.599C509.469 653.025 508.95 652.213 508.74 651.3L508.343 649.4C508.332 649.367 508.328 649.333 508.333 649.299C508.339 649.265 508.352 649.233 508.372 649.206C508.393 649.178 508.42 649.156 508.451 649.142C508.482 649.128 508.516 649.121 508.55 649.123C508.626 649.126 508.699 649.155 508.755 649.206C508.812 649.256 508.85 649.325 508.861 649.4L509.276 651.3C509.457 652.06 509.889 652.736 510.503 653.219C511.094 653.708 511.844 653.966 512.611 653.944C512.933 653.929 513.248 653.84 513.53 653.686C513.813 653.531 514.057 653.314 514.244 653.05C514.43 652.787 514.554 652.485 514.607 652.167C514.659 651.849 514.639 651.523 514.547 651.214L514.166 649.4C514.155 649.367 514.152 649.333 514.157 649.299C514.162 649.265 514.175 649.233 514.196 649.206C514.216 649.178 514.243 649.156 514.274 649.142C514.305 649.128 514.34 649.121 514.374 649.123C514.45 649.126 514.522 649.155 514.579 649.206C514.635 649.256 514.673 649.325 514.685 649.4L515.082 651.214C515.193 651.586 515.218 651.979 515.153 652.363C515.089 652.746 514.937 653.109 514.71 653.425C514.483 653.74 514.187 654 513.844 654.182C513.501 654.365 513.121 654.467 512.732 654.48H512.594Z" fill="#A6A6A6"/>
<path d="M277.43 651.024C277.635 651.796 277.659 652.605 277.5 653.387C277.341 654.17 277.003 654.905 276.513 655.536C276.023 656.167 275.394 656.676 274.675 657.023C273.956 657.37 273.166 657.547 272.367 657.539C270.536 657.46 268.779 656.79 267.361 655.627C265.943 654.465 264.941 652.874 264.505 651.093C264.3 650.321 264.276 649.512 264.435 648.73C264.594 647.947 264.932 647.212 265.422 646.581C265.912 645.951 266.541 645.442 267.26 645.094C267.979 644.747 268.769 644.571 269.568 644.579C271.401 644.651 273.161 645.32 274.58 646.483C275.998 647.646 276.999 649.241 277.43 651.024Z" fill="white"/>
<path d="M268.514 649.693C268.547 649.802 268.554 649.917 268.534 650.028C268.513 650.14 268.466 650.245 268.397 650.335C268.328 650.425 268.238 650.497 268.135 650.544C268.032 650.592 267.919 650.614 267.805 650.609C267.546 650.602 267.296 650.511 267.093 650.348C266.89 650.186 266.746 649.962 266.682 649.711C266.652 649.601 266.649 649.486 266.672 649.374C266.694 649.263 266.743 649.159 266.814 649.069C266.884 648.98 266.975 648.909 267.078 648.861C267.181 648.814 267.294 648.791 267.408 648.795C267.665 648.803 267.913 648.895 268.113 649.057C268.312 649.22 268.453 649.443 268.514 649.693Z" fill="#A6A6A6"/>
<path d="M274.752 649.676C274.785 649.785 274.792 649.9 274.772 650.011C274.751 650.123 274.704 650.228 274.635 650.318C274.566 650.408 274.476 650.479 274.373 650.527C274.27 650.575 274.157 650.597 274.043 650.592C273.785 650.58 273.537 650.485 273.337 650.319C273.138 650.154 272.997 649.928 272.937 649.676C272.904 649.568 272.897 649.453 272.918 649.341C272.938 649.23 272.985 649.124 273.054 649.035C273.124 648.945 273.214 648.873 273.317 648.825C273.42 648.778 273.533 648.755 273.646 648.76C273.905 648.772 274.153 648.868 274.352 649.033C274.552 649.198 274.692 649.424 274.752 649.676Z" fill="#A6A6A6"/>
<path d="M272.004 649.4C272.075 649.693 272.031 650.001 271.883 650.264C271.785 650.427 271.646 650.561 271.478 650.652C271.311 650.743 271.123 650.788 270.933 650.782C270.486 650.776 270.058 650.596 269.741 650.281C269.499 650.046 269.33 649.746 269.257 649.417L272.004 649.4Z" fill="#A6A6A6"/>
<path d="M271.883 650.264C271.785 650.427 271.646 650.561 271.479 650.652C271.311 650.743 271.123 650.788 270.933 650.782C270.486 650.776 270.058 650.596 269.741 650.281C269.869 650.151 270.022 650.048 270.192 649.98C270.361 649.911 270.543 649.879 270.726 649.884C271.142 649.885 271.547 650.018 271.883 650.264Z" fill="#DBDBDB"/>
<path d="M123.258 487.797L122.446 488.54L120.165 486.173L119.335 485.309C119.458 485.263 119.57 485.193 119.664 485.102C119.849 484.932 119.976 484.708 120.027 484.462L120.908 485.378L123.258 487.797Z" fill="#A6A6A6"/>
<path d="M120.182 482.268C119.734 481.717 119.093 481.359 118.39 481.266C117.686 481.172 116.974 481.352 116.398 481.766C116.171 482.027 115.997 482.33 115.889 482.658C115.78 482.986 115.739 483.333 115.766 483.677C115.793 484.022 115.889 484.357 116.048 484.664C116.207 484.971 116.426 485.243 116.692 485.464C117.11 485.946 117.675 486.276 118.3 486.404C118.924 486.532 119.574 486.451 120.148 486.173C120.261 486.112 120.366 486.037 120.459 485.948C120.637 485.787 120.784 485.593 120.891 485.378C121.103 484.849 121.15 484.268 121.023 483.712C120.896 483.156 120.603 482.652 120.182 482.268ZM119.664 485.101C119.57 485.192 119.458 485.263 119.336 485.309C119.001 485.436 118.635 485.456 118.288 485.367C117.941 485.277 117.631 485.082 117.4 484.808C117.241 484.678 117.11 484.517 117.014 484.336C116.919 484.154 116.86 483.955 116.842 483.751C116.825 483.546 116.848 483.34 116.911 483.145C116.974 482.949 117.076 482.769 117.21 482.613C117.56 482.374 117.986 482.271 118.407 482.325C118.827 482.38 119.213 482.587 119.491 482.907C119.696 483.106 119.85 483.351 119.943 483.621C120.036 483.891 120.065 484.179 120.027 484.462C119.983 484.721 119.856 484.957 119.664 485.136V485.101Z" fill="#A6A6A6"/>
<path d="M133.609 486.035C133.622 486.02 133.638 486.008 133.656 486C133.674 485.992 133.693 485.988 133.713 485.988C133.732 485.988 133.752 485.992 133.769 486C133.787 486.008 133.803 486.02 133.816 486.035C134.316 486.41 134.92 486.621 135.544 486.639C135.894 486.657 136.238 486.547 136.512 486.328C136.618 486.251 136.698 486.144 136.745 486.021C136.791 485.899 136.8 485.765 136.771 485.637C136.739 485.498 136.676 485.368 136.586 485.257C136.496 485.146 136.382 485.058 136.253 484.998C135.887 484.798 135.489 484.664 135.078 484.6C134.657 484.55 134.252 484.415 133.885 484.203C133.724 484.122 133.582 484.008 133.469 483.868C133.356 483.728 133.274 483.565 133.229 483.391C133.193 483.229 133.203 483.061 133.258 482.905C133.313 482.75 133.41 482.612 133.54 482.51C133.837 482.269 134.212 482.146 134.594 482.164C135.155 482.207 135.696 482.391 136.166 482.7C136.19 482.732 136.203 482.771 136.203 482.812C136.203 482.852 136.19 482.892 136.166 482.924C136.155 482.939 136.141 482.95 136.124 482.958C136.108 482.966 136.09 482.97 136.071 482.97C136.053 482.97 136.035 482.966 136.018 482.958C136.002 482.95 135.988 482.939 135.976 482.924C135.561 482.639 135.078 482.467 134.577 482.423C134.255 482.414 133.939 482.511 133.678 482.7C133.581 482.776 133.508 482.878 133.465 482.994C133.422 483.11 133.412 483.235 133.436 483.356C133.474 483.479 133.536 483.593 133.62 483.691C133.703 483.789 133.805 483.869 133.92 483.926C134.255 484.105 134.617 484.228 134.991 484.289C135.446 484.352 135.886 484.498 136.287 484.721C136.461 484.81 136.614 484.934 136.736 485.086C136.858 485.238 136.946 485.414 136.996 485.603C137.029 485.777 137.015 485.958 136.954 486.126C136.893 486.293 136.788 486.441 136.65 486.553C136.33 486.802 135.932 486.931 135.527 486.916C134.848 486.875 134.194 486.641 133.643 486.242C133.616 486.216 133.597 486.182 133.591 486.144C133.585 486.107 133.591 486.068 133.609 486.035Z" fill="#A6A6A6"/>
<path d="M137.842 485.257C137.785 485.063 137.774 484.859 137.811 484.66C137.848 484.462 137.931 484.275 138.054 484.115C138.177 483.954 138.337 483.826 138.519 483.739C138.701 483.652 138.902 483.61 139.104 483.615C139.542 483.64 139.961 483.802 140.302 484.078C140.643 484.354 140.889 484.73 141.005 485.153C141.007 485.173 141.005 485.193 140.999 485.212C140.994 485.23 140.984 485.248 140.971 485.263C140.958 485.277 140.941 485.289 140.923 485.297C140.905 485.305 140.886 485.309 140.866 485.309H138.24C138.335 485.652 138.534 485.957 138.809 486.183C139.084 486.409 139.423 486.544 139.778 486.57C139.977 486.583 140.176 486.531 140.344 486.422C140.512 486.313 140.641 486.153 140.711 485.966C140.739 485.94 140.776 485.926 140.814 485.926C140.853 485.926 140.89 485.94 140.918 485.966C140.959 485.984 140.992 486.018 141.012 486.059C141.031 486.1 141.034 486.147 141.022 486.19C140.925 486.42 140.761 486.616 140.551 486.751C140.342 486.887 140.096 486.956 139.847 486.951C139.371 486.933 138.915 486.757 138.552 486.45C138.189 486.143 137.939 485.723 137.842 485.257ZM138.136 484.998H140.624C140.505 484.703 140.306 484.447 140.049 484.258C139.793 484.069 139.49 483.954 139.173 483.927C139.032 483.921 138.892 483.946 138.762 483.998C138.631 484.051 138.513 484.13 138.416 484.231C138.318 484.332 138.242 484.453 138.194 484.585C138.146 484.717 138.126 484.858 138.136 484.998Z" fill="#A6A6A6"/>
<path d="M144.633 483.771L145.255 486.743C145.26 486.763 145.261 486.783 145.258 486.803C145.254 486.822 145.246 486.841 145.235 486.858C145.223 486.874 145.208 486.888 145.191 486.898C145.174 486.908 145.154 486.914 145.134 486.916C145.089 486.91 145.046 486.89 145.012 486.859C144.978 486.828 144.954 486.788 144.944 486.743L144.84 486.259C144.733 486.459 144.574 486.626 144.379 486.742C144.184 486.857 143.961 486.918 143.735 486.916C143.272 486.878 142.834 486.687 142.491 486.375C142.147 486.062 141.916 485.645 141.834 485.188C141.77 485 141.753 484.799 141.783 484.603C141.813 484.406 141.889 484.22 142.006 484.059C142.123 483.899 142.276 483.768 142.454 483.679C142.631 483.59 142.827 483.544 143.026 483.546C143.287 483.556 143.544 483.617 143.782 483.727C144.019 483.837 144.232 483.993 144.408 484.186L144.305 483.702C144.305 483.598 144.305 483.546 144.426 483.546C144.455 483.543 144.485 483.547 144.513 483.557C144.541 483.568 144.566 483.585 144.586 483.606C144.606 483.628 144.621 483.654 144.629 483.683C144.637 483.712 144.639 483.742 144.633 483.771ZM144.633 485.257C144.551 484.904 144.36 484.585 144.088 484.346C143.815 484.108 143.474 483.961 143.112 483.926C142.954 483.93 142.798 483.97 142.657 484.044C142.517 484.118 142.396 484.224 142.303 484.353C142.211 484.482 142.15 484.631 142.126 484.788C142.101 484.945 142.114 485.106 142.162 485.257C142.244 485.61 142.435 485.929 142.708 486.168C142.981 486.407 143.322 486.553 143.683 486.588C143.84 486.582 143.994 486.54 144.132 486.464C144.27 486.389 144.389 486.283 144.48 486.154C144.57 486.025 144.63 485.877 144.653 485.722C144.677 485.566 144.664 485.407 144.616 485.257H144.633Z" fill="#A6A6A6"/>
<path d="M146.033 483.771C146.027 483.751 146.026 483.73 146.03 483.709C146.034 483.689 146.044 483.67 146.058 483.654C146.072 483.638 146.09 483.626 146.11 483.62C146.129 483.613 146.151 483.612 146.171 483.615C146.215 483.62 146.256 483.637 146.289 483.665C146.323 483.693 146.348 483.729 146.361 483.771L146.517 484.497C146.602 484.258 146.76 484.053 146.967 483.907C147.174 483.762 147.421 483.684 147.675 483.685C147.719 483.687 147.761 483.703 147.795 483.731C147.829 483.759 147.854 483.797 147.865 483.84C147.865 483.944 147.865 484.013 147.744 484.013C147.566 484.012 147.392 484.063 147.242 484.157C147.092 484.252 146.973 484.388 146.897 484.549C146.781 484.788 146.705 485.045 146.672 485.309L146.983 486.76C146.983 486.864 146.983 486.933 146.863 486.933C146.815 486.928 146.769 486.909 146.732 486.878C146.696 486.848 146.669 486.807 146.655 486.76L146.033 483.771Z" fill="#A6A6A6"/>
<path d="M148.902 485.257C148.845 485.056 148.838 484.845 148.881 484.641C148.924 484.437 149.016 484.246 149.148 484.085C149.28 483.924 149.449 483.797 149.641 483.715C149.833 483.634 150.042 483.599 150.249 483.615C150.652 483.619 151.044 483.745 151.373 483.978C151.396 484.011 151.409 484.05 151.409 484.091C151.409 484.131 151.396 484.17 151.373 484.203C151.341 484.23 151.301 484.244 151.26 484.244C151.219 484.244 151.179 484.23 151.148 484.203C150.88 484.014 150.56 483.911 150.232 483.909C150.064 483.898 149.896 483.927 149.741 483.993C149.587 484.06 149.451 484.163 149.344 484.293C149.238 484.424 149.164 484.577 149.129 484.742C149.094 484.907 149.099 485.077 149.143 485.24C149.235 485.626 149.456 485.97 149.771 486.212C150.086 486.454 150.474 486.581 150.871 486.57C151.164 486.576 151.448 486.471 151.666 486.277C151.698 486.25 151.737 486.235 151.779 486.235C151.82 486.235 151.86 486.25 151.891 486.277C151.891 486.277 151.891 486.449 151.891 486.501C151.627 486.743 151.281 486.873 150.923 486.864C150.458 486.85 150.01 486.686 149.646 486.396C149.281 486.106 149.02 485.707 148.902 485.257Z" fill="#A6A6A6"/>
<path d="M155.33 484.911C155.257 484.633 155.093 484.387 154.865 484.211C154.637 484.036 154.356 483.942 154.068 483.944C153.943 483.927 153.815 483.942 153.697 483.987C153.579 484.033 153.474 484.107 153.391 484.203C153.309 484.299 153.252 484.414 153.225 484.538C153.199 484.662 153.203 484.79 153.239 484.911L153.619 486.743C153.591 486.754 153.561 486.754 153.533 486.743H153.395L153.014 484.911L152.479 482.406C152.473 482.387 152.472 482.368 152.476 482.349C152.479 482.33 152.487 482.312 152.499 482.297C152.511 482.282 152.526 482.27 152.544 482.261C152.561 482.253 152.58 482.25 152.6 482.25C152.647 482.249 152.693 482.263 152.731 482.292C152.768 482.32 152.795 482.36 152.807 482.406L153.187 484.134C153.287 483.979 153.425 483.852 153.589 483.767C153.753 483.682 153.936 483.642 154.12 483.65C154.513 483.638 154.898 483.759 155.212 483.995C155.526 484.23 155.75 484.566 155.848 484.946L156.228 486.778C156.234 486.797 156.234 486.817 156.231 486.837C156.227 486.857 156.22 486.876 156.208 486.892C156.197 486.909 156.182 486.922 156.164 486.932C156.147 486.943 156.127 486.949 156.108 486.951C156.059 486.948 156.012 486.93 155.975 486.899C155.938 486.868 155.911 486.825 155.9 486.778L155.33 484.911Z" fill="#A6A6A6"/>
<path d="M158.976 485.257C158.92 485.056 158.913 484.845 158.955 484.641C158.998 484.437 159.09 484.246 159.222 484.085C159.354 483.924 159.524 483.797 159.715 483.715C159.907 483.634 160.116 483.599 160.324 483.615C160.726 483.619 161.118 483.745 161.447 483.978C161.471 484.011 161.484 484.05 161.484 484.091C161.484 484.131 161.471 484.17 161.447 484.203C161.415 484.23 161.376 484.244 161.334 484.244C161.293 484.244 161.253 484.23 161.222 484.203C160.954 484.014 160.634 483.911 160.306 483.909C160.138 483.898 159.97 483.927 159.816 483.993C159.661 484.06 159.525 484.163 159.418 484.293C159.312 484.424 159.238 484.577 159.203 484.742C159.168 484.907 159.173 485.077 159.218 485.24C159.309 485.626 159.531 485.97 159.845 486.212C160.16 486.454 160.549 486.581 160.946 486.57C161.238 486.576 161.522 486.471 161.741 486.277C161.772 486.25 161.812 486.235 161.853 486.235C161.894 486.235 161.934 486.25 161.965 486.277C161.965 486.277 161.965 486.449 161.965 486.501C161.702 486.743 161.355 486.873 160.997 486.864C160.532 486.85 160.084 486.686 159.72 486.396C159.356 486.106 159.095 485.707 158.976 485.257Z" fill="#A6A6A6"/>
<path d="M165.318 484.911C165.245 484.633 165.081 484.387 164.853 484.211C164.624 484.036 164.344 483.942 164.056 483.944C163.931 483.927 163.803 483.942 163.685 483.987C163.567 484.032 163.461 484.106 163.379 484.203C163.297 484.299 163.24 484.414 163.213 484.538C163.186 484.661 163.191 484.79 163.227 484.911L163.607 486.743C163.579 486.754 163.548 486.754 163.52 486.743H163.382L162.985 484.911L162.432 482.354C162.426 482.335 162.425 482.316 162.429 482.297C162.432 482.278 162.44 482.26 162.452 482.245C162.464 482.23 162.479 482.218 162.497 482.209C162.514 482.201 162.534 482.198 162.553 482.198C162.6 482.197 162.646 482.211 162.684 482.24C162.721 482.268 162.748 482.308 162.76 482.354L163.123 484.082C163.228 483.928 163.37 483.802 163.536 483.718C163.702 483.633 163.887 483.592 164.073 483.598C164.466 483.586 164.851 483.707 165.165 483.943C165.479 484.178 165.703 484.514 165.801 484.894L166.182 486.726C166.187 486.747 166.187 486.768 166.183 486.789C166.178 486.81 166.169 486.83 166.156 486.847C166.142 486.863 166.125 486.877 166.106 486.886C166.086 486.895 166.065 486.899 166.043 486.899C165.998 486.893 165.955 486.873 165.921 486.842C165.887 486.811 165.863 486.771 165.853 486.726L165.318 484.911Z" fill="#A6A6A6"/>
<path d="M169.81 483.771L170.432 486.743C170.438 486.762 170.438 486.783 170.435 486.802C170.431 486.822 170.423 486.841 170.412 486.857C170.4 486.874 170.386 486.888 170.368 486.898C170.351 486.908 170.331 486.914 170.311 486.916C170.266 486.91 170.223 486.89 170.189 486.859C170.155 486.828 170.132 486.788 170.121 486.743L170.018 486.259C169.911 486.459 169.751 486.626 169.556 486.741C169.361 486.857 169.138 486.917 168.912 486.916C168.448 486.875 168.009 486.685 167.663 486.373C167.317 486.061 167.082 485.645 166.994 485.188C166.934 484.998 166.92 484.797 166.952 484.601C166.985 484.405 167.063 484.219 167.181 484.059C167.299 483.899 167.453 483.769 167.631 483.68C167.808 483.591 168.005 483.545 168.203 483.546C168.465 483.556 168.721 483.617 168.959 483.727C169.196 483.837 169.409 483.993 169.586 484.186L169.482 483.702C169.482 483.598 169.482 483.546 169.603 483.546C169.66 483.551 169.712 483.576 169.751 483.618C169.789 483.659 169.811 483.714 169.81 483.771ZM169.81 485.257C169.729 484.904 169.538 484.585 169.265 484.346C168.992 484.107 168.651 483.96 168.29 483.926C168.131 483.93 167.975 483.97 167.835 484.044C167.694 484.118 167.573 484.224 167.481 484.353C167.388 484.482 167.327 484.631 167.303 484.788C167.278 484.945 167.291 485.106 167.339 485.257C167.421 485.61 167.612 485.929 167.885 486.168C168.158 486.406 168.499 486.553 168.86 486.587C169.017 486.582 169.171 486.54 169.309 486.464C169.448 486.389 169.567 486.283 169.657 486.154C169.747 486.025 169.807 485.877 169.83 485.721C169.854 485.566 169.841 485.407 169.793 485.257H169.81Z" fill="#A6A6A6"/>
<path d="M172.35 483.771C172.356 483.789 172.357 483.809 172.353 483.828C172.35 483.847 172.342 483.865 172.33 483.88C172.318 483.895 172.303 483.907 172.285 483.915C172.268 483.924 172.249 483.927 172.229 483.927H171.815L172.316 486.328C172.331 486.396 172.368 486.456 172.421 486.5C172.475 486.543 172.541 486.568 172.61 486.57C172.657 486.577 172.701 486.597 172.738 486.628C172.774 486.658 172.802 486.698 172.817 486.743C172.822 486.764 172.823 486.786 172.818 486.807C172.814 486.828 172.805 486.847 172.791 486.864C172.778 486.881 172.761 486.894 172.741 486.903C172.722 486.912 172.7 486.917 172.679 486.916C172.513 486.914 172.353 486.855 172.227 486.747C172.101 486.64 172.016 486.492 171.988 486.328L171.469 483.927H171.072C170.916 483.927 170.899 483.927 170.882 483.771C170.864 483.615 170.882 483.615 171.003 483.615H171.417L171.158 482.389C171.153 482.369 171.152 482.349 171.156 482.329C171.159 482.309 171.167 482.291 171.179 482.274C171.19 482.258 171.205 482.244 171.222 482.234C171.24 482.224 171.259 482.218 171.279 482.216C171.279 482.216 171.486 482.302 171.486 482.389L171.763 483.615H172.178C172.219 483.621 172.257 483.639 172.288 483.667C172.319 483.694 172.34 483.731 172.35 483.771Z" fill="#A6A6A6"/>
<path d="M224.519 494.623H105.477V495.055H224.519V494.623Z" fill="#A6A6A6"/>
<path d="M220.216 474.336H101.174V474.768H220.216V474.336Z" fill="#A6A6A6"/>
<path d="M153.93 696.92H112.648V703.365H153.93V696.92Z" fill="#165C5D"/>
<path opacity="0.1" d="M153.93 696.92H112.648V701.171H153.93V696.92Z" fill="black"/>
<path d="M63.642 679.605C66.5236 683.983 70.8266 687.232 75.8255 688.806C80.8243 690.38 86.213 690.182 91.0827 688.245C93.1338 687.438 95.092 686.413 96.9233 685.187L91.7393 677.411C90.7662 678.085 89.7304 678.663 88.6462 679.139C78.8139 683.597 72.5931 675.855 71.3662 674.076C65.6983 666.127 63.6766 647.965 69.4135 640.984C69.7937 640.466 71.4526 639.636 78.0535 640.984C79.2804 641.261 80.6628 641.572 82.2353 642.004C83.4599 642.424 84.7303 642.697 86.0196 642.816L86.1751 638.15L86.6417 633.485C86.2097 633.485 85.5358 633.226 84.6718 632.984C81.5949 632.085 78.4516 631.432 75.2715 631.031C70.3812 630.53 65.2663 631.031 62.1214 634.971C52.7902 646.548 56.5572 669.635 63.642 679.605Z" fill="#165C5D"/>
<path opacity="0.1" d="M91.6703 677.497C90.6972 678.171 89.6614 678.75 88.5771 679.225L91.0827 688.314C93.1339 687.508 95.0921 686.482 96.9234 685.256L91.6703 677.497Z" fill="black"/>
<path opacity="0.1" d="M75.2544 631.204L78.0365 641.157C79.2634 641.434 80.6458 641.745 82.2182 642.177C83.4428 642.597 84.7133 642.87 86.0026 642.989L86.1581 638.323L86.6246 633.658C86.1926 633.658 85.5187 633.398 84.6547 633.157C81.5778 632.258 78.4345 631.605 75.2544 631.204Z" fill="black"/>
<path d="M188.196 619.021C188.196 619.021 183.254 661.098 174.701 678.828C166.147 696.557 154.206 698.492 146.776 698.492H119.802C112.372 698.492 100.431 696.522 91.8775 678.828C83.3239 661.133 78.3818 619.021 78.3818 619.021H188.196Z" fill="#165C5D"/>
<path d="M412.422 516.413H652.009V416.275H412.422V516.413Z" fill="#455A64"/>
<path d="M652.009 445.807V416.275H682.75L652.009 445.807Z" fill="#455A64"/>
<path d="M633.726 433.59H430.687V435.491H633.726V433.59Z" fill="white"/>
<path d="M575.113 443.854H430.687V445.755H575.113V443.854Z" fill="white"/>
<path d="M610.519 464.417H430.687V466.318H610.519V464.417Z" fill="white"/>
<path d="M633.726 474.682H430.687V476.582H633.726V474.682Z" fill="white"/>
<path d="M633.726 484.963H430.687V486.864H633.726V484.963Z" fill="white"/>
<path d="M555.517 495.245H430.687V497.145H555.517V495.245Z" fill="white"/>
<path d="M619.246 231.69H379.659V316.189H619.246V231.69Z" fill="#165C5D"/>
<path d="M379.693 261.239V231.69H348.935L379.693 261.239Z" fill="#165C5D"/>
<path d="M554.135 247.294H398.287V249.195H554.135V247.294Z" fill="white"/>
<path d="M601.327 257.576H398.287V259.476H601.327V257.576Z" fill="white"/>
<path d="M601.327 267.857H398.287V269.758H601.327V267.857Z" fill="white"/>
<path d="M578.966 278.122H398.287V280.022H578.966V278.122Z" fill="white"/>
<path d="M601.327 288.403H398.287V290.304H601.327V288.403Z" fill="white"/>
<path d="M527.593 298.685H398.287V300.586H527.593V298.685Z" fill="white"/>
<path d="M619.246 329.858H379.659V392.515H619.246V329.858Z" fill="#165C5D"/>
<path d="M379.693 359.389V329.858H348.935L379.693 359.389Z" fill="#165C5D"/>
<path d="M600.826 345.462H398.287V347.362H600.826V345.462Z" fill="white"/>
<path d="M550.955 355.743H398.287V357.644H550.955V355.743Z" fill="white"/>
<path d="M574.266 366.008H398.287V367.908H574.266V366.008Z" fill="white"/>
<path d="M515.894 376.289H398.287V378.19H515.894V376.289Z" fill="white"/>
<path d="M619.246 535.887H379.659V593.689H619.246V535.887Z" fill="#165C5D"/>
<path d="M379.659 565.419V535.887H348.9L379.659 565.419Z" fill="#165C5D"/>
<path d="M585.636 551.491H398.287V553.392H585.636V551.491Z" fill="white"/>
<path d="M537.114 561.755H398.287V563.656H537.114V561.755Z" fill="white"/>
<path d="M572.607 572.037H398.287V573.938H572.607V572.037Z" fill="white"/>
<path d="M747.654 474.025C778.212 474.025 802.984 449.253 802.984 418.695C802.984 388.136 778.212 363.364 747.654 363.364C717.096 363.364 692.323 388.136 692.323 418.695C692.323 449.253 717.096 474.025 747.654 474.025Z" fill="#A6A6A6"/>
<mask id="mask0_108_11" style="mask-type:luminance" maskUnits="userSpaceOnUse" x="692" y="343" width="112" height="132">
<path d="M803.001 418.694C803.016 426.765 801.258 434.74 797.851 442.055C794.444 449.371 789.472 455.849 783.285 461.03C779.195 464.47 774.633 467.304 769.737 469.446C769.167 469.705 768.58 469.947 768.009 470.172L767.059 470.534C763.928 471.725 760.687 472.599 757.382 473.144C754.192 473.744 750.952 474.039 747.705 474.025C745.777 474.026 743.85 473.922 741.934 473.714C741.111 473.653 740.292 473.549 739.48 473.403C738.512 473.265 737.545 473.109 736.577 472.885C736.278 472.848 735.983 472.784 735.696 472.694C734.244 472.401 732.793 472.021 731.376 471.589C729.959 471.157 728.334 470.569 726.848 469.964L726.485 469.791C726.199 469.702 725.921 469.586 725.656 469.446C723.826 468.668 722.049 467.773 720.334 466.767C712.487 462.311 705.849 456.002 701.001 448.391C696.153 440.779 693.242 432.097 692.521 423.102C691.8 414.106 693.292 405.071 696.866 396.785C700.439 388.499 705.987 381.213 713.024 375.564C713.595 373.438 714.182 371.399 714.752 369.533C705.196 363.053 709.43 350.784 711.124 348.192C712.817 345.6 718.796 351.89 718.796 351.89C718.796 351.89 720.714 344.252 722.908 343.768C725.103 343.285 726.658 348.313 726.658 348.313C726.658 348.313 743.022 345.375 757.157 347.881C771.292 350.387 776.165 365.714 776.165 365.714C776.165 365.714 783.509 368.427 785.151 374.095C785.413 375.366 785.413 376.677 785.151 377.948C790.786 383.134 795.282 389.433 798.354 396.447C801.427 403.461 803.009 411.037 803.001 418.694Z" fill="white"/>
</mask>
<g mask="url(#mask0_108_11)">
<path d="M731.826 455.363L736.716 477.55L772.52 451.094L785.359 462.914C785.359 462.914 756.605 496.454 733.277 496.454C721.043 496.454 718.641 468.374 718.641 468.374L731.826 455.363Z" fill="#165C5D"/>
<path d="M737.424 480.591C746.427 483.391 763.102 470.5 770.083 459.596C770.55 458.853 769.928 450.576 769.651 440.502C769.496 434.385 769.479 427.559 769.911 421.338C770.014 420.06 730.167 428.112 730.167 428.112C731.86 436.059 732.568 444.184 732.275 452.304C732.21 453.164 732.059 454.015 731.825 454.844C731.825 454.948 731.825 455.103 731.825 455.259C730.685 460.011 728.732 477.878 737.424 480.591Z" fill="#EB9481"/>
<path d="M767.63 421.304C764.917 432.156 756.363 456.831 735.817 455.864C734.475 455.807 733.14 455.639 731.825 455.363C731.825 455.207 731.825 455.052 731.825 454.948C732.069 454.12 732.22 453.268 732.275 452.408V452.304C732.519 448.271 732.427 444.225 731.998 440.208C731.591 436.211 730.98 432.237 730.167 428.302L730.426 428.129C733.553 427.455 759.646 422.202 767.63 421.304Z" fill="#263238"/>
<path d="M773.298 371.797C778.101 385.482 772.485 425.814 763.016 435.162C749.278 448.71 725.933 450.939 714.217 434.229C702.847 418.038 711.09 365.593 721.751 357.005C737.476 344.373 766.178 351.596 773.298 371.797Z" fill="#EB9481"/>
<path d="M769.738 405.648C760.286 404.214 760.994 386.778 760.994 386.778C760.994 386.778 745.148 381.698 744.595 369.135C744.595 369.135 727.73 376.687 716.274 370.501C704.817 364.314 709.362 350.991 711.09 348.261C712.818 345.531 718.762 351.959 718.762 351.959C718.762 351.959 720.68 344.321 722.874 343.837C725.069 343.354 726.624 348.382 726.624 348.382C726.624 348.382 743.006 345.462 757.106 347.95C771.207 350.438 776.114 365.783 776.114 365.783C776.114 365.783 783.441 368.513 785.117 374.181C786.793 379.849 775.751 406.495 769.738 405.648Z" fill="#263238"/>
<path d="M734.4 399.755C734.4 399.652 734.59 399.911 734.573 400.015C734.124 402.728 734.054 405.907 736.405 407.134C736.405 407.134 736.405 407.307 736.405 407.29C733.484 406.46 733.605 402.192 734.4 399.755Z" fill="#263238"/>
<path d="M737.269 397.233C741.692 397.492 740.863 406.305 736.768 406.08C732.672 405.855 733.571 397.008 737.269 397.233Z" fill="#263238"/>
<path d="M718.606 398.736C718.606 398.632 718.382 398.84 718.382 398.961C718.209 401.691 717.552 404.801 714.926 405.475V405.631C718.053 405.458 718.848 401.328 718.606 398.736Z" fill="#263238"/>
<path d="M716.446 395.608C712.074 394.865 710.899 403.643 714.943 404.335C718.986 405.026 720.092 396.248 716.446 395.608Z" fill="#263238"/>
<path d="M741.139 393.552C740.014 393.101 738.912 392.594 737.839 392.031C736.597 391.654 735.516 390.876 734.763 389.82C734.59 389.443 734.546 389.02 734.64 388.616C734.734 388.213 734.96 387.852 735.281 387.59C735.995 387.174 736.806 386.955 737.631 386.955C738.457 386.955 739.268 387.174 739.982 387.59C741.563 388.211 742.861 389.392 743.628 390.908C743.768 391.262 743.805 391.649 743.733 392.023C743.662 392.398 743.485 392.744 743.224 393.021C742.963 393.299 742.628 393.496 742.259 393.59C741.89 393.684 741.501 393.671 741.139 393.552Z" fill="#263238"/>
<path d="M713.457 390.856C714.665 390.729 715.865 390.533 717.051 390.269C718.341 390.248 719.588 389.798 720.594 388.99C720.864 388.676 721.021 388.281 721.04 387.868C721.058 387.454 720.938 387.046 720.697 386.709C720.131 386.108 719.414 385.669 718.621 385.438C717.828 385.207 716.988 385.193 716.187 385.396C714.496 385.567 712.928 386.354 711.781 387.608C711.541 387.91 711.393 388.275 711.355 388.66C711.318 389.044 711.392 389.431 711.569 389.774C711.746 390.117 712.018 390.402 712.353 390.594C712.688 390.786 713.071 390.877 713.457 390.856Z" fill="#263238"/>
<path d="M734.59 425.347C733.882 425.917 733.139 426.73 732.136 426.73C731.125 426.604 730.149 426.275 729.268 425.762C729.268 425.762 729.095 425.762 729.147 425.883C729.483 426.458 729.969 426.932 730.554 427.251C731.138 427.571 731.799 427.725 732.465 427.697C733.037 427.607 733.569 427.348 733.993 426.954C734.418 426.56 734.716 426.049 734.849 425.485C734.901 425.33 734.694 425.261 734.59 425.347Z" fill="#263238"/>
<path d="M732.517 417.053C731.707 418.058 730.698 418.884 729.553 419.479C728.408 420.073 727.152 420.424 725.864 420.509C724.737 420.601 723.603 420.537 722.494 420.319L721.855 420.181L721.268 420.025C721.126 419.978 721.004 419.887 720.917 419.766C720.83 419.645 720.783 419.5 720.784 419.351C720.774 419.259 720.774 419.167 720.784 419.075V418.85C720.939 416.725 721.492 413.545 721.492 413.545C720.68 413.856 716.567 415.273 716.74 414.115C718.261 405.061 719.937 395.004 723.341 386.329C723.363 386.269 723.406 386.219 723.462 386.188C723.518 386.158 723.584 386.149 723.646 386.164C723.708 386.179 723.763 386.217 723.799 386.27C723.835 386.322 723.851 386.387 723.842 386.45C722.736 395.194 720.092 403.73 718.848 412.474C720.308 411.967 721.832 411.671 723.376 411.592C723.669 411.713 722.218 417.727 722.218 418.677V418.781C725.674 419.61 728.491 418.781 732.171 416.811C732.5 416.638 732.672 416.846 732.517 417.053Z" fill="#263238"/>
<path d="M723.877 419.731C724.943 421.315 726.402 422.595 728.111 423.446C729.048 423.887 730.1 424.02 731.117 423.827C733.346 423.377 733.519 421.373 733.225 419.628C733.058 418.701 732.785 417.797 732.413 416.932C729.939 418.752 726.948 419.733 723.877 419.731Z" fill="#263238"/>
<path d="M728.11 423.446C729.047 423.887 730.1 424.02 731.117 423.826C733.346 423.377 733.519 421.373 733.225 419.627C732.069 419.602 730.937 419.964 730.01 420.656C729.083 421.348 728.415 422.33 728.11 423.446Z" fill="#FF99BA"/>
<path d="M766.126 404.784C766.126 404.784 774.887 391.634 780.831 394.727C786.776 397.82 780.399 416.759 773.557 419.489C772.702 419.896 771.774 420.126 770.828 420.166C769.882 420.206 768.938 420.054 768.052 419.72C767.166 419.386 766.357 418.877 765.672 418.222C764.988 417.568 764.443 416.782 764.07 415.912L766.126 404.784Z" fill="#EB9481"/>
<path d="M778.879 400.257C778.983 400.257 779 400.395 778.879 400.447C774.075 402.503 771.639 407.048 769.963 411.748C771.362 409.916 773.298 408.897 775.734 410.555C775.855 410.642 775.734 410.849 775.613 410.815C774.756 410.562 773.84 410.582 772.995 410.873C772.149 411.164 771.416 411.712 770.896 412.439C770.018 413.647 769.282 414.951 768.701 416.327C768.476 416.759 767.699 416.552 767.854 416.05C767.847 416.011 767.847 415.97 767.854 415.93C767.664 409.761 772.261 401.034 778.879 400.257Z" fill="#263238"/>
<path d="M732.275 452.563L737.079 475.511L770.101 446.014L778.326 455.276C778.326 455.276 746.116 501.932 745.909 499.841L736.128 480.09L722.563 494.053L728.007 459.354L732.275 452.563Z" fill="white"/>
<path d="M727.782 459.683C727.782 459.475 728.179 459.372 728.179 459.683C727.868 466.767 723.358 487.089 723.444 492.342C724.015 491.737 736.007 480.038 736.145 480.246C738.236 483.374 745.373 497.75 745.857 499.064C750.419 492.342 771.604 464.711 776.771 457.695C776.796 457.65 776.838 457.616 776.888 457.601C776.939 457.586 776.993 457.592 777.038 457.618C777.084 457.643 777.118 457.685 777.133 457.735C777.147 457.786 777.141 457.84 777.116 457.886C773.28 465.696 746.513 501.984 746.168 501.88C742.452 495.053 739.101 488.033 736.128 480.851C734.106 483.391 722.01 496.575 721.958 495.729C721.526 489.992 725.846 466.785 727.782 459.683Z" fill="#263238"/>
</g>
<path d="M324.592 568.384C346.578 546.398 346.578 510.752 324.592 488.767C302.606 466.781 266.96 466.781 244.974 488.767C222.989 510.752 222.989 546.398 244.974 568.384C266.96 590.37 302.606 590.37 324.592 568.384Z" fill="#A6A6A6"/>
<mask id="mask1_108_11" style="mask-type:luminance" maskUnits="userSpaceOnUse" x="228" y="458" width="114" height="127">
<path d="M341.107 528.561C341.123 538.425 338.547 548.12 333.638 556.676C328.729 565.232 321.658 572.348 313.135 577.313C304.611 582.277 294.933 584.916 285.069 584.964C275.204 585.013 265.501 582.469 256.928 577.589C248.356 572.708 241.216 565.662 236.223 557.155C231.23 548.648 228.559 538.978 228.478 529.114C228.397 519.251 230.907 509.538 235.759 500.95C240.611 492.361 247.634 485.198 256.124 480.177C258.733 471.778 265.524 463.778 280.627 459.994C310.21 452.598 316.777 473.938 317.399 476.254C317.399 476.254 317.399 476.254 317.399 476.34C317.406 476.369 317.406 476.398 317.399 476.427C318.43 479.159 319.313 481.945 320.043 484.773C326.61 490.027 331.913 496.69 335.559 504.269C339.205 511.848 341.101 520.15 341.107 528.561Z" fill="white"/>
</mask>
<g mask="url(#mask1_108_11)">
<path d="M300.914 565.885L295.92 588.349L261.879 564.987L253.429 577.463C253.429 577.463 275.703 607.599 299.428 607.599C311.887 607.599 314.323 579.035 314.323 579.035L300.914 565.885Z" fill="#165C5D"/>
<path d="M295.211 591.546C286.053 594.397 269.084 581.282 261.982 570.188C261.498 569.428 262.138 561.012 262.431 550.748C262.57 544.527 262.604 537.598 262.155 531.274C262.068 529.96 266.648 532.051 266.648 532.051L274.977 533.451L302.521 538.168C302.521 538.168 299.549 551.699 300.378 562.723C300.442 563.6 300.592 564.468 300.827 565.315C300.827 565.436 300.827 565.574 300.827 565.73C302.054 570.62 304.128 588.816 295.211 591.546Z" fill="#EB9481"/>
<path d="M300.828 565.454C300.828 565.574 300.828 565.713 300.828 565.886C299.49 566.162 298.132 566.329 296.767 566.387C269.983 567.648 264.298 533.883 264.298 533.883L274.891 533.606L302.435 538.307C302.435 538.307 299.463 551.854 300.292 562.879C300.382 563.753 300.562 564.616 300.828 565.454Z" fill="#263238"/>
<path d="M258.716 480.868C253.826 494.778 259.528 535.818 269.171 545.339C283.15 559.163 306.893 561.393 318.833 544.389C330.394 527.904 321.996 474.543 311.144 465.817C295.16 452.961 265.957 460.305 258.716 480.868Z" fill="#EB9481"/>
<path d="M298.218 509.328C298.218 509.224 298.028 509.483 298.045 509.587C298.495 512.352 298.564 515.583 296.179 516.827C296.179 516.827 296.179 517.018 296.179 516.983C299.22 516.136 299.1 511.834 298.218 509.328Z" fill="#263238"/>
<path d="M295.367 506.753C290.874 507.012 291.721 515.981 295.886 515.739C300.05 515.497 299.134 506.529 295.367 506.753Z" fill="#263238"/>
<path d="M314.341 508.239C314.341 508.118 314.582 508.343 314.582 508.464C314.755 511.246 315.429 514.408 318.038 515.099V515.255C314.911 515.117 314.064 510.9 314.341 508.239Z" fill="#263238"/>
<path d="M316.552 505.094C320.993 504.334 322.186 513.268 318.073 513.976C313.96 514.685 312.768 505.734 316.552 505.094Z" fill="#263238"/>
<path d="M291.427 502.986C292.619 502.554 293.656 501.967 294.797 501.431C296.053 501.045 297.146 500.256 297.907 499.185C298.083 498.803 298.128 498.374 298.034 497.964C297.94 497.555 297.713 497.188 297.389 496.921C296.663 496.496 295.837 496.271 294.995 496.271C294.154 496.271 293.328 496.496 292.602 496.921C290.992 497.543 289.673 498.745 288.904 500.29C288.761 500.65 288.722 501.043 288.794 501.424C288.866 501.805 289.044 502.157 289.309 502.44C289.574 502.723 289.914 502.924 290.289 503.021C290.664 503.118 291.059 503.106 291.427 502.986Z" fill="#263238"/>
<path d="M319.68 500.256C318.456 500.122 317.239 499.926 316.034 499.669C314.719 499.639 313.45 499.177 312.423 498.355C312.148 498.034 311.988 497.631 311.966 497.209C311.944 496.788 312.062 496.37 312.302 496.022C312.884 495.412 313.619 494.969 314.43 494.738C315.241 494.507 316.099 494.497 316.915 494.709C318.63 494.862 320.223 495.658 321.374 496.938C321.621 497.245 321.775 497.617 321.816 498.008C321.856 498.4 321.783 498.796 321.604 499.147C321.425 499.498 321.148 499.789 320.806 499.986C320.465 500.183 320.074 500.277 319.68 500.256Z" fill="#263238"/>
<path d="M298.097 535.334C298.823 535.922 299.566 536.751 300.586 536.751C301.617 536.631 302.612 536.296 303.506 535.766C303.514 535.757 303.524 535.75 303.534 535.744C303.545 535.739 303.557 535.736 303.569 535.735C303.581 535.734 303.593 535.736 303.605 535.74C303.616 535.744 303.627 535.75 303.636 535.758C303.645 535.766 303.652 535.775 303.657 535.786C303.663 535.797 303.666 535.809 303.667 535.821C303.668 535.833 303.666 535.845 303.662 535.856C303.658 535.868 303.652 535.878 303.644 535.887C303.295 536.484 302.787 536.973 302.177 537.299C301.567 537.626 300.879 537.777 300.188 537.736C299.608 537.643 299.069 537.38 298.638 536.98C298.207 536.58 297.905 536.061 297.769 535.49C297.786 535.334 297.994 535.248 298.097 535.334Z" fill="#263238"/>
<path d="M299.791 527.939C302.625 530.237 312.094 530.237 312.129 529.926L311.351 523.273C312.18 523.601 316.328 525.001 316.155 523.895C314.738 514.702 313.148 504.472 309.778 495.608C309.757 495.547 309.714 495.497 309.658 495.467C309.601 495.436 309.536 495.428 309.473 495.443C309.411 495.458 309.357 495.495 309.321 495.548C309.284 495.601 309.269 495.665 309.277 495.729C310.297 504.628 312.872 513.285 314.047 522.202C312.565 521.678 311.018 521.364 309.45 521.269C309.156 521.389 310.556 527.507 310.556 528.474C307.104 528.628 303.651 528.166 300.361 527.109C299.272 526.764 299.03 527.334 299.791 527.939Z" fill="#263238"/>
<path d="M263.71 514.011C267.166 513.13 270.519 501.638 270.622 490.475C270.622 483.304 273.56 474.25 281.561 471.554C286.883 469.826 296.145 474.146 301.433 472.85C306.72 471.554 307.705 468.53 310.833 468.616C313.961 468.703 317.451 476.392 317.451 476.392C317.451 476.392 311.87 452.097 280.627 459.907C247.795 468.15 254.327 496.333 257.49 505.371C259.943 512.352 263.71 514.011 263.71 514.011Z" fill="#263238"/>
<path d="M266.112 514.512C266.112 514.512 257.178 501.137 251.13 504.282C245.082 507.427 251.58 526.746 258.543 529.459C259.41 529.878 260.352 530.116 261.314 530.16C262.275 530.204 263.236 530.053 264.137 529.715C265.038 529.378 265.862 528.861 266.557 528.196C267.253 527.531 267.807 526.732 268.186 525.848L266.112 514.512Z" fill="#EB9481"/>
<path d="M253.049 509.812C253.03 509.82 253.014 509.833 253.003 509.85C252.992 509.867 252.986 509.887 252.986 509.907C252.986 509.927 252.992 509.947 253.003 509.964C253.014 509.98 253.03 509.994 253.049 510.002C257.939 512.11 260.427 516.741 262.138 521.51C260.704 519.661 258.682 518.607 256.263 520.301C256.124 520.301 256.263 520.594 256.384 520.56C257.256 520.307 258.185 520.329 259.044 520.623C259.904 520.917 260.652 521.468 261.187 522.202C262.06 523.443 262.807 524.769 263.417 526.159C263.624 526.608 264.436 526.401 264.281 525.882C264.27 525.842 264.27 525.801 264.281 525.761C264.384 519.489 259.771 510.607 253.049 509.812Z" fill="#263238"/>
</g>
<path d="M276.083 302.037C308.426 302.037 334.645 275.818 334.645 243.475C334.645 211.132 308.426 184.913 276.083 184.913C243.74 184.913 217.521 211.132 217.521 243.475C217.521 275.818 243.74 302.037 276.083 302.037Z" fill="#A6A6A6"/>
<path d="M337.392 288.144H332.398C331.88 281.767 327.836 272.022 328.942 276.929C329.586 280.63 329.801 284.393 329.582 288.144H244.979C243.994 278.553 248.279 262.777 248.279 262.777C243.389 270.708 241.506 281.958 240.797 288.144H232.814C231.984 282.407 234.023 272.592 234.023 272.592C231.829 276.445 230.567 283.686 229.928 288.144H220.839C220.493 278.553 223.759 265.939 231.414 254.5C237.548 245.324 229.945 239.984 230.101 222.117C230.256 198.34 246.569 189.285 249.282 186.727C286.174 152.548 319.663 184.274 323.257 206.859C326.713 228.943 320.371 231.863 330.636 251.925C338.394 266.907 337.392 288.144 337.392 288.144Z" fill="#263238"/>
<path d="M237.946 300.465C237.946 300.465 238.119 300.568 238.188 300.637C250.457 309.001 274.683 323.706 287.643 319.041C297.614 315.446 303.454 305.217 304.128 301.916C298.944 297.251 291.427 293 288.11 290.788C268.981 278.07 251.753 285.69 237.946 300.465Z" fill="#455A64"/>
<path d="M256.418 293.224C257.282 296.058 272.264 313.805 285.362 312.319C289.631 311.818 287.972 288.403 287.972 288.403L288.248 286.675L292.05 262.086L262.38 245.722L258.095 243.579C258.095 243.579 257.507 250.37 256.85 258.837L256.747 260.047C256.747 260.531 256.643 260.98 256.626 261.429C256.505 262.691 256.401 263.987 256.315 265.265C256.315 266.25 256.176 267.201 256.142 268.237C256.107 269.274 256.038 270.276 255.986 271.313C255.633 278.618 255.777 285.939 256.418 293.224Z" fill="#FFC4C0"/>
<path d="M256.85 258.768C259.752 265.407 264.063 271.336 269.484 276.143C274.906 280.95 281.309 284.52 288.248 286.606L292.049 262.016L262.38 245.652L258.094 243.51C258.094 243.51 257.472 250.352 256.85 258.768Z" fill="#263238"/>
<path d="M322.445 221.132C329.357 264.332 304.249 273.231 294.935 274.7C286.502 276.031 257.576 279.504 246.309 237.306C235.043 195.108 252.927 178.312 272.074 174.234C291.22 170.156 315.602 178.019 322.445 221.132Z" fill="#FFC4C0"/>
<path d="M249.834 240.347C260.634 239.051 261.032 205.494 261.032 201.364C261.153 203.973 261.913 217.711 263.019 218.177C264.174 218.048 265.3 217.733 266.354 217.244C266.233 215.599 266.233 213.947 266.354 212.302C266.354 211.542 266.786 213.926 267.443 216.864C268.048 216.639 268.687 216.38 269.395 216.138C268.983 212.638 269.041 209.099 269.568 205.615C269.776 204.301 270.605 210.107 272.264 215.084C281.287 211.621 290.663 209.158 300.223 207.74C302.901 207.412 305.251 207.256 307.325 207.187C306.997 203.126 306.167 198.858 306.547 199.757C307.557 202.135 308.333 204.606 308.863 207.135C309.986 207.135 311.023 207.135 311.956 207.135C311.766 201.398 308.293 192.499 309.312 193.812C312.384 197.889 314.659 202.508 316.017 207.429C319.974 207.861 321.201 208.535 321.201 207.515C321.201 205.684 317.745 189.873 304.249 179.159C289.648 167.547 262.362 166.579 248.763 187.488C248.763 187.488 236.909 196.715 236.028 210.073C235.146 223.43 243.648 241.073 249.834 240.347Z" fill="#263238"/>
<path d="M304.439 246.257C303.519 248.131 302.132 249.738 300.413 250.923C299.45 251.534 298.322 251.836 297.182 251.787C294.693 251.631 294.192 249.489 294.261 247.536C294.307 246.507 294.469 245.487 294.745 244.495C297.704 246.105 301.103 246.723 304.439 246.257Z" fill="white"/>
<path d="M313.442 215.844C312.423 215.844 311.472 215.603 310.453 215.482C309.385 215.498 308.341 215.164 307.481 214.531C307.245 214.279 307.1 213.955 307.068 213.61C307.037 213.266 307.121 212.921 307.308 212.63C307.76 212.116 308.34 211.731 308.99 211.515C309.64 211.299 310.336 211.261 311.006 211.403C312.417 211.493 313.743 212.11 314.721 213.131C314.895 213.381 315.001 213.672 315.027 213.975C315.053 214.279 314.998 214.583 314.868 214.859C314.738 215.134 314.538 215.37 314.288 215.543C314.037 215.716 313.746 215.82 313.442 215.844Z" fill="#263238"/>
<path d="M285.449 219.404C286.451 219.197 287.349 218.834 288.317 218.54C289.379 218.364 290.355 217.849 291.099 217.071C291.281 216.782 291.363 216.441 291.332 216.1C291.301 215.76 291.158 215.439 290.926 215.188C290.393 214.759 289.754 214.48 289.077 214.38C288.4 214.28 287.708 214.362 287.073 214.618C285.701 214.943 284.499 215.769 283.703 216.933C283.569 217.211 283.511 217.52 283.536 217.828C283.561 218.136 283.669 218.431 283.847 218.683C284.025 218.936 284.268 219.136 284.549 219.262C284.831 219.389 285.142 219.438 285.449 219.404Z" fill="#263238"/>
<path d="M292.205 229.876C292.205 229.772 291.98 230.049 291.998 230.17C292.43 233.107 292.412 236.546 289.855 237.825C289.768 237.825 289.855 238.015 289.855 237.997C293.103 237.168 293.069 232.589 292.205 229.876Z" fill="#263238"/>
<path d="M289.215 227.076C284.429 227.249 285.12 236.822 289.561 236.667C294.002 236.511 293.242 226.938 289.215 227.076Z" fill="#263238"/>
<path d="M287.366 227.664C286.572 228.251 285.829 229.271 284.826 229.392C283.824 229.513 282.718 228.649 281.889 227.75C281.889 227.647 281.716 227.75 281.733 227.871C281.837 229.703 282.666 231.535 284.653 231.673C286.641 231.811 287.643 230.066 287.971 228.217C288.023 227.958 287.695 227.491 287.366 227.664Z" fill="#263238"/>
<path d="M308.673 227.18C308.673 227.076 308.915 227.318 308.915 227.439C308.915 230.411 309.623 233.798 312.371 234.61C312.371 234.61 312.371 234.783 312.371 234.766C309.053 234.576 308.275 230.014 308.673 227.18Z" fill="#263238"/>
<path d="M311.04 223.914C315.792 223.24 316.795 232.796 312.388 233.418C307.982 234.04 307.135 224.484 311.04 223.914Z" fill="#263238"/>
<path d="M313.166 224.346C313.978 224.761 314.894 225.608 315.723 225.573C316.553 225.539 317.451 224.415 318.004 223.361C318.004 223.258 318.16 223.361 318.177 223.448C318.402 225.262 318.004 227.232 316.293 227.768C314.583 228.303 313.39 226.8 312.837 225.037C312.647 224.709 312.855 224.208 313.166 224.346Z" fill="#263238"/>
<path d="M293.294 252.513C294.019 253.204 294.745 254.137 295.834 254.241C296.941 254.182 298.024 253.893 299.013 253.394C299.034 253.386 299.056 253.386 299.077 253.392C299.098 253.398 299.117 253.411 299.13 253.428C299.143 253.445 299.151 253.466 299.152 253.488C299.153 253.51 299.146 253.531 299.134 253.549C298.732 254.149 298.173 254.627 297.518 254.932C296.863 255.236 296.137 255.356 295.419 255.277C294.808 255.139 294.251 254.822 293.821 254.366C293.39 253.911 293.104 253.338 293 252.72C292.948 252.495 293.173 252.426 293.294 252.513Z" fill="#263238"/>
<path d="M304.768 240.779C304.768 240.779 305.753 245.151 305.925 247.225C305.925 247.432 305.459 247.571 304.75 247.657C304.75 247.657 304.75 247.657 304.664 247.657C302.898 248.134 301.035 248.116 299.28 247.604C297.524 247.092 295.943 246.106 294.711 244.754C294.555 244.564 294.711 244.322 295.005 244.443C297.817 246.043 301.074 246.686 304.284 246.275C304.388 245.687 302.349 238.844 302.677 238.792C304.312 238.804 305.939 239.031 307.515 239.466C305.787 230.291 302.487 221.495 300.845 212.337C300.84 212.272 300.856 212.207 300.891 212.152C300.926 212.098 300.978 212.056 301.04 212.035C301.101 212.013 301.168 212.012 301.229 212.032C301.291 212.053 301.344 212.093 301.381 212.147C305.424 221.149 307.705 231.656 309.796 241.073C310.073 242.266 305.632 241.056 304.768 240.779Z" fill="#263238"/>
<path d="M287.228 244.702C284.793 244.685 282.411 243.986 280.354 242.683C278.296 241.38 276.646 239.525 275.59 237.33C274.534 235.136 274.116 232.689 274.382 230.268C274.648 227.847 275.589 225.55 277.096 223.637C278.603 221.724 280.617 220.273 282.909 219.448C285.2 218.623 287.677 218.457 290.058 218.971C292.439 219.484 294.627 220.655 296.376 222.35C298.124 224.046 299.361 226.198 299.946 228.562C300.771 231.912 300.234 235.453 298.453 238.407C296.671 241.361 293.79 243.488 290.442 244.322C289.39 244.576 288.311 244.703 287.228 244.702ZM287.384 220.423C286.446 220.414 285.511 220.524 284.602 220.752C281.814 221.44 279.394 223.164 277.833 225.574C276.273 227.984 275.69 230.899 276.203 233.724C276.716 236.549 278.287 239.072 280.595 240.779C282.904 242.486 285.776 243.25 288.627 242.913C291.479 242.577 294.095 241.166 295.942 238.968C297.79 236.77 298.73 233.951 298.572 231.084C298.413 228.217 297.168 225.519 295.089 223.538C293.01 221.557 290.255 220.444 287.384 220.423Z" fill="#165C5D"/>
<path d="M316.881 241.246C311.904 241.246 307.429 236.062 306.686 229.34C306.266 226.125 306.871 222.86 308.414 220.009C309 218.738 309.904 217.64 311.039 216.822C312.174 216.003 313.501 215.492 314.892 215.337C316.282 215.182 317.69 215.389 318.977 215.939C320.264 216.488 321.387 217.36 322.238 218.471C324.364 220.925 325.669 223.982 325.97 227.215C326.748 234.334 323.085 240.624 317.78 241.212C317.482 241.251 317.181 241.263 316.881 241.246ZM315.723 217.054C315.505 217.036 315.285 217.036 315.067 217.054C313.961 217.219 312.912 217.649 312.009 218.308C311.106 218.967 310.376 219.835 309.883 220.838C308.528 223.372 307.996 226.265 308.362 229.116C309.053 235.302 313.149 239.933 317.503 239.484C321.858 239.034 324.847 233.574 324.173 227.388C323.901 224.522 322.748 221.812 320.873 219.629C320.24 218.866 319.455 218.244 318.568 217.801C317.682 217.357 316.713 217.103 315.723 217.054Z" fill="#165C5D"/>
<path d="M299.67 230.1L298.426 228.908C300.154 227.042 304.491 224.329 308.016 227.353L306.876 228.666C303.731 225.936 299.843 229.945 299.67 230.1Z" fill="#165C5D"/>
<path d="M242.439 239.76L240.814 239.138C241.108 238.395 243.769 231.725 247.554 230.671C251.338 229.617 274.51 229.288 275.513 229.271V230.999C268.808 231.103 250.75 231.569 248.003 232.33C245.255 233.09 243.147 238.032 242.439 239.76Z" fill="#165C5D"/>
<path d="M253.688 239.535C253.688 239.535 243.216 226.61 237.289 230.446C231.362 234.282 239.916 253.48 247.346 255.657C248.281 256.001 249.275 256.153 250.27 256.103C251.265 256.053 252.239 255.803 253.135 255.367C254.03 254.931 254.829 254.319 255.482 253.567C256.135 252.815 256.63 251.939 256.936 250.992L253.688 239.535Z" fill="#FFC4C0"/>
<path d="M239.881 235.889C239.863 235.897 239.847 235.911 239.836 235.927C239.825 235.944 239.819 235.964 239.819 235.984C239.819 236.004 239.825 236.024 239.836 236.041C239.847 236.058 239.863 236.071 239.881 236.079C245.065 237.807 248.124 242.3 250.249 247.052C248.608 245.324 246.482 244.391 244.097 246.361C244.061 246.381 244.034 246.416 244.022 246.456C244.011 246.497 244.016 246.54 244.037 246.577C244.058 246.614 244.092 246.64 244.132 246.652C244.173 246.663 244.216 246.658 244.253 246.637C245.136 246.268 246.113 246.187 247.044 246.408C247.976 246.628 248.813 247.138 249.437 247.864C250.463 249.047 251.356 250.339 252.098 251.718C252.375 252.15 253.169 251.856 252.962 251.355V251.234C252.547 244.754 246.88 236.045 239.881 235.889Z" fill="#263238"/>
<mask id="mask2_108_11" style="mask-type:luminance" maskUnits="userSpaceOnUse" x="217" y="171" width="121" height="132">
<path d="M337.392 288.144H332.398C331.897 281.768 327.854 272.022 328.942 276.947C329.591 280.641 329.811 284.399 329.599 288.144H314.047C309.396 292.111 304.147 295.318 298.495 297.648C295.183 299.03 291.746 300.089 288.231 300.81C284.223 301.687 280.133 302.127 276.031 302.123C271.261 302.124 266.508 301.544 261.879 300.395C256.092 298.958 250.565 296.626 245.497 293.483C242.869 291.911 240.383 290.113 238.067 288.109H232.883C232.665 286.39 232.613 284.654 232.727 282.925C232.209 282.321 231.708 281.75 231.207 281.197C230.654 283.72 230.256 286.243 229.98 288.109H220.839C220.734 281.912 221.728 275.746 223.776 269.896C218.155 258.749 216.244 246.098 218.32 233.788C220.397 221.478 226.353 210.154 235.319 201.467C240.382 192.516 247.571 188.266 249.264 186.693H249.351C260.323 170.778 279.487 168.255 294.106 173.681L294.486 173.802C310.211 179.228 321.27 194.452 323.257 206.893C323.378 207.775 323.499 208.621 323.62 209.451C328.547 216.292 331.935 224.119 333.548 232.394C335.162 240.668 334.964 249.194 332.969 257.386C338.17 271.486 337.392 288.144 337.392 288.144Z" fill="white"/>
</mask>
<g mask="url(#mask2_108_11)">
<path d="M304.128 301.968C303.454 305.217 297.614 315.481 287.643 319.058C274.683 323.741 250.439 309.036 238.17 300.689L237.946 300.517C240.293 297.979 242.829 295.622 245.532 293.466C250.599 296.609 256.126 298.941 261.913 300.378C266.543 301.527 271.295 302.107 276.065 302.106C280.167 302.11 284.258 301.67 288.265 300.793C291.781 300.072 295.218 299.013 298.529 297.631C300.48 298.964 302.349 300.413 304.128 301.968Z" fill="#455A64"/>
<path d="M288.265 300.724C288.144 306.461 287.436 312.077 285.362 312.301C276.895 313.269 267.65 306.202 261.913 300.309C266.543 301.457 271.295 302.038 276.065 302.037C280.167 302.041 284.258 301.6 288.265 300.724Z" fill="#FFC4C0"/>
</g>
</g>
<defs>
<linearGradient id="paint0_linear_108_11" x1="0" y1="0" x2="864" y2="1037" gradientUnits="userSpaceOnUse">
<stop stop-color="#30C2BF"/>
<stop offset="1" stop-color="#1EB159"/>
</linearGradient>
<linearGradient id="paint1_linear_108_11" x1="895" y1="1175.5" x2="-17.0001" y2="-109.5" gradientUnits="userSpaceOnUse">
<stop stop-color="#30C2BF"/>
<stop offset="0.9999" stop-color="#1EB159"/>
<stop offset="1" stop-color="#30C2BF"/>
</linearGradient>
<clipPath id="clip0_108_11">
<rect width="864" height="1024" fill="white"/>
</clipPath>
</defs>
</svg>
